<svg width="282" height="100" viewBox="0 0 282 100" fill="none" xmlns="http://www.w3.org/2000/svg">
<mask id="path-1-outside-1_171_20" maskUnits="userSpaceOnUse" x="35" y="0" width="213" height="68" fill="black">
<rect fill="white" x="35" width="213" height="68"/>
<path d="M59.65 35.85C59.65 37.3167 59.3667 38.6833 58.8 39.95C58.2667 41.2167 57.5333 42.3167 56.6 43.25C55.6667 44.1833 54.55 44.9333 53.25 45.5C51.9833 46.0333 50.6333 46.3 49.2 46.3H38.35V41.8H49.2C50.0333 41.8 50.8 41.65 51.5 41.35C52.2333 41.0167 52.8667 40.5833 53.4 40.05C53.9333 39.5167 54.35 38.9 54.65 38.2C54.9833 37.4667 55.15 36.6833 55.15 35.85C55.15 35.0167 54.9833 34.25 54.65 33.55C54.35 32.8167 53.9333 32.1833 53.4 31.65C52.8667 31.1167 52.2333 30.7 51.5 30.4C50.8 30.0667 50.0333 29.9 49.2 29.9H47.05C45.6167 29.9 44.2333 29.7 42.9 29.3C41.5667 28.8667 40.3833 28.25 39.35 27.45C38.35 26.6167 37.5333 25.6 36.9 24.4C36.3 23.2 36 21.8333 36 20.3C36 18.4667 36.3667 16.9167 37.1 15.65C37.8333 14.3833 38.7833 13.3667 39.95 12.6C41.15 11.8 42.5167 11.2333 44.05 10.9C45.5833 10.5333 47.15 10.35 48.75 10.35C49.75 10.35 50.75 10.4333 51.75 10.6C52.75 10.7333 53.6667 10.9167 54.5 11.15C55.3667 11.35 56.1167 11.55 56.75 11.75C57.3833 11.95 57.8333 12.1 58.1 12.2L56.4 16.35C55.9333 16.1833 55.4 16.0167 54.8 15.85C54.2 15.65 53.55 15.4833 52.85 15.35C52.1833 15.1833 51.4833 15.0667 50.75 15C50.05 14.9 49.3833 14.85 48.75 14.85C47.8167 14.85 46.85 14.9167 45.85 15.05C44.8833 15.1833 44 15.45 43.2 15.85C42.4 16.25 41.7333 16.8167 41.2 17.55C40.7 18.25 40.45 19.1667 40.45 20.3C40.45 21.2 40.65 21.9833 41.05 22.65C41.45 23.2833 41.95 23.8167 42.55 24.25C43.1833 24.65 43.8833 24.95 44.65 25.15C45.45 25.35 46.25 25.45 47.05 25.45H49.2C50.6333 25.45 51.9833 25.7333 53.25 26.3C54.55 26.8333 55.6667 27.5667 56.6 28.5C57.5333 29.4333 58.2667 30.5333 58.8 31.8C59.3667 33.0667 59.65 34.4167 59.65 35.85Z"/>
<path d="M93.6352 46.3H79.5352C78.4685 46.3 77.4185 46.1167 76.3852 45.75C75.3852 45.3833 74.4852 44.8667 73.6852 44.2C72.9185 43.5333 72.2852 42.7333 71.7852 41.8C71.3185 40.8667 71.0852 39.8333 71.0852 38.7C71.0852 37.6667 71.3018 36.6833 71.7352 35.75C72.2018 34.8167 72.8185 34.0167 73.5852 33.35C74.3518 32.65 75.2352 32.1 76.2352 31.7C77.2685 31.3 78.3685 31.1 79.5352 31.1C80.3685 31.1 81.1352 31.1667 81.8352 31.3C82.5352 31.4 83.1852 31.55 83.7852 31.75C83.3185 30.4833 82.5352 29.45 81.4352 28.65C80.3685 27.85 79.1352 27.45 77.7352 27.45C76.8352 27.45 76.0352 27.6167 75.3352 27.95L73.6852 23.75C74.9852 23.25 76.3352 23 77.7352 23C79.2352 23 80.6352 23.2833 81.9352 23.85C83.2685 24.4167 84.4352 25.2 85.4352 26.2C86.4352 27.1667 87.2185 28.3167 87.7852 29.65C88.3518 30.9833 88.6352 32.4 88.6352 33.9V41.8H93.6352V46.3ZM84.1352 41.8V36.75C83.5685 36.45 82.9018 36.1833 82.1352 35.95C81.4018 35.6833 80.5352 35.55 79.5352 35.55C79.1018 35.55 78.6518 35.6167 78.1852 35.75C77.7185 35.8833 77.2852 36.1 76.8852 36.4C76.5185 36.6667 76.2018 37 75.9352 37.4C75.7018 37.7667 75.5852 38.2 75.5852 38.7C75.5852 39.2 75.7018 39.65 75.9352 40.05C76.2018 40.4167 76.5185 40.7333 76.8852 41C77.2852 41.2667 77.7185 41.4667 78.1852 41.6C78.6518 41.7333 79.1018 41.8 79.5352 41.8H84.1352Z"/>
<path d="M132.866 46.3H123.366V34.7C123.366 33.6333 123.166 32.6333 122.766 31.7C122.366 30.7667 121.816 29.9667 121.116 29.3C120.449 28.6 119.649 28.05 118.716 27.65C117.783 27.25 116.783 27.05 115.716 27.05C114.416 27.05 113.183 27.3833 112.016 28.05C110.849 28.6833 109.933 29.5667 109.266 30.7V66.3H104.766V11H109.266V24.45C110.233 23.85 111.249 23.3833 112.316 23.05C113.416 22.7167 114.549 22.55 115.716 22.55C117.383 22.55 118.949 22.8667 120.416 23.5C121.916 24.1333 123.216 25 124.316 26.1C125.416 27.2 126.283 28.5 126.916 30C127.549 31.4667 127.866 33.0333 127.866 34.7V41.8H132.866V46.3Z"/>
<path d="M167.621 46.3H153.271C151.504 46.3 149.837 45.9667 148.271 45.3C146.737 44.6333 145.387 43.7333 144.221 42.6C143.087 41.4333 142.187 40.0833 141.521 38.55C140.854 36.9833 140.521 35.3167 140.521 33.55V23.75H145.021V33.55C145.021 34.6833 145.237 35.75 145.671 36.75C146.104 37.75 146.687 38.6333 147.421 39.4C148.187 40.1333 149.071 40.7167 150.071 41.15C151.071 41.5833 152.137 41.8 153.271 41.8H158.121V23.75H162.621V41.8H167.621V46.3Z"/>
<path d="M194.319 24.55L192.169 28.45C191.202 27.9167 190.102 27.65 188.869 27.65C188.002 27.65 187.152 27.8 186.319 28.1C185.519 28.3667 184.785 28.7833 184.119 29.35C183.485 29.9167 182.969 30.6167 182.569 31.45C182.169 32.2833 181.969 33.2333 181.969 34.3V46.3H177.469V28.25H172.419V23.75H181.969V25.8C182.535 25.1 183.435 24.4833 184.669 23.95C185.935 23.4167 187.352 23.15 188.919 23.15C189.785 23.15 190.669 23.2667 191.569 23.5C192.502 23.7 193.419 24.05 194.319 24.55Z"/>
<path d="M215.213 46.3H205.713V1H210.163V41.8H215.213V46.3Z"/>
<path d="M246.568 34.75C246.568 35.0833 246.552 35.4833 246.518 35.95C246.485 36.3833 246.435 36.7667 246.368 37.1H228.218C228.718 38.5 229.585 39.6333 230.818 40.5C232.052 41.3667 233.435 41.8 234.968 41.8H239.518V46.3H234.968C233.368 46.3 231.852 46 230.418 45.4C229.018 44.7667 227.785 43.9333 226.718 42.9C225.685 41.8333 224.852 40.6 224.218 39.2C223.618 37.7667 223.318 36.25 223.318 34.65C223.318 33.05 223.618 31.55 224.218 30.15C224.852 28.75 225.685 27.5333 226.718 26.5C227.785 25.4333 229.018 24.6 230.418 24C231.852 23.3667 233.368 23.05 234.968 23.05C236.635 23.05 238.168 23.35 239.568 23.95C241.002 24.55 242.235 25.3833 243.268 26.45C244.302 27.4833 245.102 28.7167 245.668 30.15C246.268 31.5833 246.568 33.1167 246.568 34.75ZM241.768 32.95C241.602 32.15 241.302 31.4167 240.868 30.75C240.435 30.0833 239.918 29.5167 239.318 29.05C238.718 28.55 238.035 28.1667 237.268 27.9C236.535 27.6333 235.768 27.5 234.968 27.5C234.168 27.5 233.385 27.6333 232.618 27.9C231.885 28.1667 231.202 28.5333 230.568 29C229.935 29.4667 229.402 30.05 228.968 30.75C228.535 31.4167 228.252 32.15 228.118 32.95H241.768Z"/>
</mask>
<path d="M59.65 35.85C59.65 37.3167 59.3667 38.6833 58.8 39.95C58.2667 41.2167 57.5333 42.3167 56.6 43.25C55.6667 44.1833 54.55 44.9333 53.25 45.5C51.9833 46.0333 50.6333 46.3 49.2 46.3H38.35V41.8H49.2C50.0333 41.8 50.8 41.65 51.5 41.35C52.2333 41.0167 52.8667 40.5833 53.4 40.05C53.9333 39.5167 54.35 38.9 54.65 38.2C54.9833 37.4667 55.15 36.6833 55.15 35.85C55.15 35.0167 54.9833 34.25 54.65 33.55C54.35 32.8167 53.9333 32.1833 53.4 31.65C52.8667 31.1167 52.2333 30.7 51.5 30.4C50.8 30.0667 50.0333 29.9 49.2 29.9H47.05C45.6167 29.9 44.2333 29.7 42.9 29.3C41.5667 28.8667 40.3833 28.25 39.35 27.45C38.35 26.6167 37.5333 25.6 36.9 24.4C36.3 23.2 36 21.8333 36 20.3C36 18.4667 36.3667 16.9167 37.1 15.65C37.8333 14.3833 38.7833 13.3667 39.95 12.6C41.15 11.8 42.5167 11.2333 44.05 10.9C45.5833 10.5333 47.15 10.35 48.75 10.35C49.75 10.35 50.75 10.4333 51.75 10.6C52.75 10.7333 53.6667 10.9167 54.5 11.15C55.3667 11.35 56.1167 11.55 56.75 11.75C57.3833 11.95 57.8333 12.1 58.1 12.2L56.4 16.35C55.9333 16.1833 55.4 16.0167 54.8 15.85C54.2 15.65 53.55 15.4833 52.85 15.35C52.1833 15.1833 51.4833 15.0667 50.75 15C50.05 14.9 49.3833 14.85 48.75 14.85C47.8167 14.85 46.85 14.9167 45.85 15.05C44.8833 15.1833 44 15.45 43.2 15.85C42.4 16.25 41.7333 16.8167 41.2 17.55C40.7 18.25 40.45 19.1667 40.45 20.3C40.45 21.2 40.65 21.9833 41.05 22.65C41.45 23.2833 41.95 23.8167 42.55 24.25C43.1833 24.65 43.8833 24.95 44.65 25.15C45.45 25.35 46.25 25.45 47.05 25.45H49.2C50.6333 25.45 51.9833 25.7333 53.25 26.3C54.55 26.8333 55.6667 27.5667 56.6 28.5C57.5333 29.4333 58.2667 30.5333 58.8 31.8C59.3667 33.0667 59.65 34.4167 59.65 35.85Z" fill="#664D66"/>
<path d="M93.6352 46.3H79.5352C78.4685 46.3 77.4185 46.1167 76.3852 45.75C75.3852 45.3833 74.4852 44.8667 73.6852 44.2C72.9185 43.5333 72.2852 42.7333 71.7852 41.8C71.3185 40.8667 71.0852 39.8333 71.0852 38.7C71.0852 37.6667 71.3018 36.6833 71.7352 35.75C72.2018 34.8167 72.8185 34.0167 73.5852 33.35C74.3518 32.65 75.2352 32.1 76.2352 31.7C77.2685 31.3 78.3685 31.1 79.5352 31.1C80.3685 31.1 81.1352 31.1667 81.8352 31.3C82.5352 31.4 83.1852 31.55 83.7852 31.75C83.3185 30.4833 82.5352 29.45 81.4352 28.65C80.3685 27.85 79.1352 27.45 77.7352 27.45C76.8352 27.45 76.0352 27.6167 75.3352 27.95L73.6852 23.75C74.9852 23.25 76.3352 23 77.7352 23C79.2352 23 80.6352 23.2833 81.9352 23.85C83.2685 24.4167 84.4352 25.2 85.4352 26.2C86.4352 27.1667 87.2185 28.3167 87.7852 29.65C88.3518 30.9833 88.6352 32.4 88.6352 33.9V41.8H93.6352V46.3ZM84.1352 41.8V36.75C83.5685 36.45 82.9018 36.1833 82.1352 35.95C81.4018 35.6833 80.5352 35.55 79.5352 35.55C79.1018 35.55 78.6518 35.6167 78.1852 35.75C77.7185 35.8833 77.2852 36.1 76.8852 36.4C76.5185 36.6667 76.2018 37 75.9352 37.4C75.7018 37.7667 75.5852 38.2 75.5852 38.7C75.5852 39.2 75.7018 39.65 75.9352 40.05C76.2018 40.4167 76.5185 40.7333 76.8852 41C77.2852 41.2667 77.7185 41.4667 78.1852 41.6C78.6518 41.7333 79.1018 41.8 79.5352 41.8H84.1352Z" fill="#664D66"/>
<path d="M132.866 46.3H123.366V34.7C123.366 33.6333 123.166 32.6333 122.766 31.7C122.366 30.7667 121.816 29.9667 121.116 29.3C120.449 28.6 119.649 28.05 118.716 27.65C117.783 27.25 116.783 27.05 115.716 27.05C114.416 27.05 113.183 27.3833 112.016 28.05C110.849 28.6833 109.933 29.5667 109.266 30.7V66.3H104.766V11H109.266V24.45C110.233 23.85 111.249 23.3833 112.316 23.05C113.416 22.7167 114.549 22.55 115.716 22.55C117.383 22.55 118.949 22.8667 120.416 23.5C121.916 24.1333 123.216 25 124.316 26.1C125.416 27.2 126.283 28.5 126.916 30C127.549 31.4667 127.866 33.0333 127.866 34.7V41.8H132.866V46.3Z" fill="#664D66"/>
<path d="M167.621 46.3H153.271C151.504 46.3 149.837 45.9667 148.271 45.3C146.737 44.6333 145.387 43.7333 144.221 42.6C143.087 41.4333 142.187 40.0833 141.521 38.55C140.854 36.9833 140.521 35.3167 140.521 33.55V23.75H145.021V33.55C145.021 34.6833 145.237 35.75 145.671 36.75C146.104 37.75 146.687 38.6333 147.421 39.4C148.187 40.1333 149.071 40.7167 150.071 41.15C151.071 41.5833 152.137 41.8 153.271 41.8H158.121V23.75H162.621V41.8H167.621V46.3Z" fill="#664D66"/>
<path d="M194.319 24.55L192.169 28.45C191.202 27.9167 190.102 27.65 188.869 27.65C188.002 27.65 187.152 27.8 186.319 28.1C185.519 28.3667 184.785 28.7833 184.119 29.35C183.485 29.9167 182.969 30.6167 182.569 31.45C182.169 32.2833 181.969 33.2333 181.969 34.3V46.3H177.469V28.25H172.419V23.75H181.969V25.8C182.535 25.1 183.435 24.4833 184.669 23.95C185.935 23.4167 187.352 23.15 188.919 23.15C189.785 23.15 190.669 23.2667 191.569 23.5C192.502 23.7 193.419 24.05 194.319 24.55Z" fill="#664D66"/>
<path d="M215.213 46.3H205.713V1H210.163V41.8H215.213V46.3Z" fill="#664D66"/>
<path d="M246.568 34.75C246.568 35.0833 246.552 35.4833 246.518 35.95C246.485 36.3833 246.435 36.7667 246.368 37.1H228.218C228.718 38.5 229.585 39.6333 230.818 40.5C232.052 41.3667 233.435 41.8 234.968 41.8H239.518V46.3H234.968C233.368 46.3 231.852 46 230.418 45.4C229.018 44.7667 227.785 43.9333 226.718 42.9C225.685 41.8333 224.852 40.6 224.218 39.2C223.618 37.7667 223.318 36.25 223.318 34.65C223.318 33.05 223.618 31.55 224.218 30.15C224.852 28.75 225.685 27.5333 226.718 26.5C227.785 25.4333 229.018 24.6 230.418 24C231.852 23.3667 233.368 23.05 234.968 23.05C236.635 23.05 238.168 23.35 239.568 23.95C241.002 24.55 242.235 25.3833 243.268 26.45C244.302 27.4833 245.102 28.7167 245.668 30.15C246.268 31.5833 246.568 33.1167 246.568 34.75ZM241.768 32.95C241.602 32.15 241.302 31.4167 240.868 30.75C240.435 30.0833 239.918 29.5167 239.318 29.05C238.718 28.55 238.035 28.1667 237.268 27.9C236.535 27.6333 235.768 27.5 234.968 27.5C234.168 27.5 233.385 27.6333 232.618 27.9C231.885 28.1667 231.202 28.5333 230.568 29C229.935 29.4667 229.402 30.05 228.968 30.75C228.535 31.4167 228.252 32.15 228.118 32.95H241.768Z" fill="#664D66"/>
<path d="M59.65 35.85C59.65 37.3167 59.3667 38.6833 58.8 39.95C58.2667 41.2167 57.5333 42.3167 56.6 43.25C55.6667 44.1833 54.55 44.9333 53.25 45.5C51.9833 46.0333 50.6333 46.3 49.2 46.3H38.35V41.8H49.2C50.0333 41.8 50.8 41.65 51.5 41.35C52.2333 41.0167 52.8667 40.5833 53.4 40.05C53.9333 39.5167 54.35 38.9 54.65 38.2C54.9833 37.4667 55.15 36.6833 55.15 35.85C55.15 35.0167 54.9833 34.25 54.65 33.55C54.35 32.8167 53.9333 32.1833 53.4 31.65C52.8667 31.1167 52.2333 30.7 51.5 30.4C50.8 30.0667 50.0333 29.9 49.2 29.9H47.05C45.6167 29.9 44.2333 29.7 42.9 29.3C41.5667 28.8667 40.3833 28.25 39.35 27.45C38.35 26.6167 37.5333 25.6 36.9 24.4C36.3 23.2 36 21.8333 36 20.3C36 18.4667 36.3667 16.9167 37.1 15.65C37.8333 14.3833 38.7833 13.3667 39.95 12.6C41.15 11.8 42.5167 11.2333 44.05 10.9C45.5833 10.5333 47.15 10.35 48.75 10.35C49.75 10.35 50.75 10.4333 51.75 10.6C52.75 10.7333 53.6667 10.9167 54.5 11.15C55.3667 11.35 56.1167 11.55 56.75 11.75C57.3833 11.95 57.8333 12.1 58.1 12.2L56.4 16.35C55.9333 16.1833 55.4 16.0167 54.8 15.85C54.2 15.65 53.55 15.4833 52.85 15.35C52.1833 15.1833 51.4833 15.0667 50.75 15C50.05 14.9 49.3833 14.85 48.75 14.85C47.8167 14.85 46.85 14.9167 45.85 15.05C44.8833 15.1833 44 15.45 43.2 15.85C42.4 16.25 41.7333 16.8167 41.2 17.55C40.7 18.25 40.45 19.1667 40.45 20.3C40.45 21.2 40.65 21.9833 41.05 22.65C41.45 23.2833 41.95 23.8167 42.55 24.25C43.1833 24.65 43.8833 24.95 44.65 25.15C45.45 25.35 46.25 25.45 47.05 25.45H49.2C50.6333 25.45 51.9833 25.7333 53.25 26.3C54.55 26.8333 55.6667 27.5667 56.6 28.5C57.5333 29.4333 58.2667 30.5333 58.8 31.8C59.3667 33.0667 59.65 34.4167 59.65 35.85Z" stroke="#664D66" stroke-width="1.6" mask="url(#path-1-outside-1_171_20)"/>
<path d="M93.6352 46.3H79.5352C78.4685 46.3 77.4185 46.1167 76.3852 45.75C75.3852 45.3833 74.4852 44.8667 73.6852 44.2C72.9185 43.5333 72.2852 42.7333 71.7852 41.8C71.3185 40.8667 71.0852 39.8333 71.0852 38.7C71.0852 37.6667 71.3018 36.6833 71.7352 35.75C72.2018 34.8167 72.8185 34.0167 73.5852 33.35C74.3518 32.65 75.2352 32.1 76.2352 31.7C77.2685 31.3 78.3685 31.1 79.5352 31.1C80.3685 31.1 81.1352 31.1667 81.8352 31.3C82.5352 31.4 83.1852 31.55 83.7852 31.75C83.3185 30.4833 82.5352 29.45 81.4352 28.65C80.3685 27.85 79.1352 27.45 77.7352 27.45C76.8352 27.45 76.0352 27.6167 75.3352 27.95L73.6852 23.75C74.9852 23.25 76.3352 23 77.7352 23C79.2352 23 80.6352 23.2833 81.9352 23.85C83.2685 24.4167 84.4352 25.2 85.4352 26.2C86.4352 27.1667 87.2185 28.3167 87.7852 29.65C88.3518 30.9833 88.6352 32.4 88.6352 33.9V41.8H93.6352V46.3ZM84.1352 41.8V36.75C83.5685 36.45 82.9018 36.1833 82.1352 35.95C81.4018 35.6833 80.5352 35.55 79.5352 35.55C79.1018 35.55 78.6518 35.6167 78.1852 35.75C77.7185 35.8833 77.2852 36.1 76.8852 36.4C76.5185 36.6667 76.2018 37 75.9352 37.4C75.7018 37.7667 75.5852 38.2 75.5852 38.7C75.5852 39.2 75.7018 39.65 75.9352 40.05C76.2018 40.4167 76.5185 40.7333 76.8852 41C77.2852 41.2667 77.7185 41.4667 78.1852 41.6C78.6518 41.7333 79.1018 41.8 79.5352 41.8H84.1352Z" stroke="#664D66" stroke-width="1.6" mask="url(#path-1-outside-1_171_20)"/>
<path d="M132.866 46.3H123.366V34.7C123.366 33.6333 123.166 32.6333 122.766 31.7C122.366 30.7667 121.816 29.9667 121.116 29.3C120.449 28.6 119.649 28.05 118.716 27.65C117.783 27.25 116.783 27.05 115.716 27.05C114.416 27.05 113.183 27.3833 112.016 28.05C110.849 28.6833 109.933 29.5667 109.266 30.7V66.3H104.766V11H109.266V24.45C110.233 23.85 111.249 23.3833 112.316 23.05C113.416 22.7167 114.549 22.55 115.716 22.55C117.383 22.55 118.949 22.8667 120.416 23.5C121.916 24.1333 123.216 25 124.316 26.1C125.416 27.2 126.283 28.5 126.916 30C127.549 31.4667 127.866 33.0333 127.866 34.7V41.8H132.866V46.3Z" stroke="#664D66" stroke-width="1.6" mask="url(#path-1-outside-1_171_20)"/>
<path d="M167.621 46.3H153.271C151.504 46.3 149.837 45.9667 148.271 45.3C146.737 44.6333 145.387 43.7333 144.221 42.6C143.087 41.4333 142.187 40.0833 141.521 38.55C140.854 36.9833 140.521 35.3167 140.521 33.55V23.75H145.021V33.55C145.021 34.6833 145.237 35.75 145.671 36.75C146.104 37.75 146.687 38.6333 147.421 39.4C148.187 40.1333 149.071 40.7167 150.071 41.15C151.071 41.5833 152.137 41.8 153.271 41.8H158.121V23.75H162.621V41.8H167.621V46.3Z" stroke="#664D66" stroke-width="1.6" mask="url(#path-1-outside-1_171_20)"/>
<path d="M194.319 24.55L192.169 28.45C191.202 27.9167 190.102 27.65 188.869 27.65C188.002 27.65 187.152 27.8 186.319 28.1C185.519 28.3667 184.785 28.7833 184.119 29.35C183.485 29.9167 182.969 30.6167 182.569 31.45C182.169 32.2833 181.969 33.2333 181.969 34.3V46.3H177.469V28.25H172.419V23.75H181.969V25.8C182.535 25.1 183.435 24.4833 184.669 23.95C185.935 23.4167 187.352 23.15 188.919 23.15C189.785 23.15 190.669 23.2667 191.569 23.5C192.502 23.7 193.419 24.05 194.319 24.55Z" stroke="#664D66" stroke-width="1.6" mask="url(#path-1-outside-1_171_20)"/>
<path d="M215.213 46.3H205.713V1H210.163V41.8H215.213V46.3Z" stroke="#664D66" stroke-width="1.6" mask="url(#path-1-outside-1_171_20)"/>
<path d="M246.568 34.75C246.568 35.0833 246.552 35.4833 246.518 35.95C246.485 36.3833 246.435 36.7667 246.368 37.1H228.218C228.718 38.5 229.585 39.6333 230.818 40.5C232.052 41.3667 233.435 41.8 234.968 41.8H239.518V46.3H234.968C233.368 46.3 231.852 46 230.418 45.4C229.018 44.7667 227.785 43.9333 226.718 42.9C225.685 41.8333 224.852 40.6 224.218 39.2C223.618 37.7667 223.318 36.25 223.318 34.65C223.318 33.05 223.618 31.55 224.218 30.15C224.852 28.75 225.685 27.5333 226.718 26.5C227.785 25.4333 229.018 24.6 230.418 24C231.852 23.3667 233.368 23.05 234.968 23.05C236.635 23.05 238.168 23.35 239.568 23.95C241.002 24.55 242.235 25.3833 243.268 26.45C244.302 27.4833 245.102 28.7167 245.668 30.15C246.268 31.5833 246.568 33.1167 246.568 34.75ZM241.768 32.95C241.602 32.15 241.302 31.4167 240.868 30.75C240.435 30.0833 239.918 29.5167 239.318 29.05C238.718 28.55 238.035 28.1667 237.268 27.9C236.535 27.6333 235.768 27.5 234.968 27.5C234.168 27.5 233.385 27.6333 232.618 27.9C231.885 28.1667 231.202 28.5333 230.568 29C229.935 29.4667 229.402 30.05 228.968 30.75C228.535 31.4167 228.252 32.15 228.118 32.95H241.768Z" stroke="#664D66" stroke-width="1.6" mask="url(#path-1-outside-1_171_20)"/>
<path d="M8.27266 95.24C6.12599 95.24 4.49932 94.86 3.39266 94.1C2.28599 93.34 1.73266 92.2267 1.73266 90.76V90.58H4.23266V90.76C4.23266 92.2533 5.61932 93 8.39266 93C9.59266 93 10.506 92.86 11.1327 92.58C11.7727 92.3 12.0927 91.8933 12.0927 91.36V91.22C12.0927 90.7533 11.906 90.4067 11.5327 90.18C11.1593 89.9533 10.4793 89.7733 9.49266 89.64L6.33266 89.2C3.43932 88.8 1.99266 87.6267 1.99266 85.68V85.48C1.99266 84.28 2.51932 83.34 3.57266 82.66C4.63932 81.98 6.13932 81.64 8.07266 81.64C10.1127 81.64 11.666 82.0067 12.7327 82.74C13.8127 83.4733 14.3527 84.54 14.3527 85.94V86.12H11.8527V85.94C11.8527 84.5667 10.5927 83.88 8.07266 83.88C6.92599 83.88 6.04599 84.0133 5.43266 84.28C4.83266 84.5467 4.53266 84.9267 4.53266 85.42V85.58C4.53266 85.98 4.70599 86.2867 5.05266 86.5C5.41266 86.7 6.03266 86.86 6.91266 86.98L10.0927 87.42C11.6527 87.6333 12.7993 88.04 13.5327 88.64C14.266 89.2267 14.6327 90.0467 14.6327 91.1V91.3C14.6327 92.54 14.0793 93.5067 12.9727 94.2C11.866 94.8933 10.2993 95.24 8.27266 95.24ZM22.6823 95.24C21.469 95.24 20.4157 95.04 19.5223 94.64C18.6423 94.2267 17.9623 93.6467 17.4823 92.9C17.0023 92.14 16.7623 91.2533 16.7623 90.24V89.84C16.7623 88.8133 17.0023 87.92 17.4823 87.16C17.9623 86.4 18.649 85.82 19.5423 85.42C20.4357 85.0067 21.4823 84.8 22.6823 84.8C24.4957 84.8 25.909 85.24 26.9223 86.12C27.949 87 28.4623 88.2133 28.4623 89.76V90.82H19.2823C19.3757 91.5267 19.7157 92.0733 20.3023 92.46C20.9023 92.8467 21.6957 93.04 22.6823 93.04C23.6023 93.04 24.349 92.9067 24.9223 92.64C25.4957 92.3733 25.8157 92.0133 25.8823 91.56H28.4623C28.329 92.7333 27.7557 93.64 26.7423 94.28C25.7423 94.92 24.389 95.24 22.6823 95.24ZM25.8623 88.82C25.7023 88.2467 25.3423 87.8 24.7823 87.48C24.2223 87.16 23.5157 87 22.6623 87C21.7823 87 21.0557 87.16 20.4823 87.48C19.909 87.8 19.5357 88.2467 19.3623 88.82H25.8623ZM42.0603 95C41.4203 95 40.8736 94.8933 40.4203 94.68C39.9803 94.4533 39.6536 94.1267 39.4403 93.7C38.9203 94.2333 38.307 94.6267 37.6003 94.88C36.8936 95.12 36.0603 95.24 35.1003 95.24C33.647 95.24 32.5203 94.98 31.7203 94.46C30.9203 93.9267 30.5203 93.18 30.5203 92.22C30.5203 91.42 30.8203 90.7733 31.4203 90.28C32.0336 89.7733 32.9003 89.46 34.0203 89.34L39.1403 88.78C38.9803 87.6467 37.9603 87.08 36.0803 87.08C35.107 87.08 34.347 87.22 33.8003 87.5C33.2536 87.78 32.9803 88.1667 32.9803 88.66V88.72H30.5803V88.66C30.5803 87.9 30.807 87.2267 31.2603 86.64C31.7136 86.0533 32.3536 85.6 33.1803 85.28C34.0203 84.96 34.9936 84.8 36.1003 84.8C37.8203 84.8 39.1603 85.1867 40.1203 85.96C41.0803 86.72 41.5603 87.7867 41.5603 89.16V91.92C41.5603 92.2267 41.6536 92.4667 41.8403 92.64C42.027 92.8 42.2936 92.88 42.6403 92.88H43.5203V95H42.0603ZM32.9203 92.22C32.9203 92.82 33.627 93.12 35.0403 93.12C36.0536 93.12 36.9136 92.9667 37.6203 92.66C38.3403 92.3533 38.8536 91.92 39.1603 91.36V90.74L34.5403 91.24C33.4603 91.36 32.9203 91.6867 32.9203 92.22ZM50.6167 95.24C48.7767 95.24 47.3367 94.9533 46.2967 94.38C45.2701 93.7933 44.7567 92.98 44.7567 91.94V91.8H47.1567V91.94C47.1567 92.34 47.4367 92.6333 47.9967 92.82C48.5567 92.9933 49.4501 93.08 50.6767 93.08C52.7434 93.08 53.7767 92.7533 53.7767 92.1V91.98C53.7767 91.74 53.6301 91.56 53.3367 91.44C53.0434 91.32 52.5034 91.22 51.7167 91.14L49.2767 90.9C47.8234 90.7667 46.7634 90.4733 46.0967 90.02C45.4301 89.5533 45.0967 88.9 45.0967 88.06V87.86C45.0967 86.9 45.5767 86.1533 46.5367 85.62C47.5101 85.0733 48.8634 84.8 50.5967 84.8C52.3834 84.8 53.7634 85.0867 54.7367 85.66C55.7234 86.2333 56.2167 87.0467 56.2167 88.1V88.24H53.8167V88.1C53.8167 87.7 53.5501 87.4133 53.0167 87.24C52.4967 87.0533 51.6634 86.96 50.5167 86.96C49.5701 86.96 48.8434 87.0333 48.3367 87.18C47.8301 87.3267 47.5767 87.5333 47.5767 87.8V87.92C47.5767 88.1733 47.7101 88.3667 47.9767 88.5C48.2434 88.62 48.6834 88.7133 49.2967 88.78L51.7767 89.02C53.3501 89.1667 54.4901 89.4733 55.1967 89.94C55.9034 90.4067 56.2567 91.0733 56.2567 91.94V92.14C56.2567 93.1133 55.7567 93.8733 54.7567 94.42C53.7567 94.9667 52.3767 95.24 50.6167 95.24ZM64.2863 95.24C63.0596 95.24 61.9929 95.04 61.0863 94.64C60.1796 94.2267 59.4796 93.64 58.9863 92.88C58.5063 92.12 58.2663 91.2267 58.2663 90.2V89.9C58.2663 88.86 58.5063 87.96 58.9863 87.2C59.4663 86.4267 60.1596 85.8333 61.0663 85.42C61.9729 85.0067 63.0463 84.8 64.2863 84.8C65.5129 84.8 66.5729 85.0067 67.4663 85.42C68.3596 85.8333 69.0463 86.4267 69.5263 87.2C70.0063 87.96 70.2463 88.86 70.2463 89.9V90.2C70.2463 91.2267 70.0063 92.12 69.5263 92.88C69.0463 93.64 68.3596 94.2267 67.4663 94.64C66.5729 95.04 65.5129 95.24 64.2863 95.24ZM60.7463 90.2C60.7463 91.0933 61.0529 91.7933 61.6663 92.3C62.2929 92.7933 63.1596 93.04 64.2663 93.04C65.3596 93.04 66.2129 92.7933 66.8263 92.3C67.4529 91.7933 67.7663 91.0933 67.7663 90.2V89.9C67.7663 88.98 67.4596 88.2667 66.8463 87.76C66.2329 87.2533 65.3729 87 64.2663 87C63.1329 87 62.2596 87.2533 61.6463 87.76C61.0463 88.2533 60.7463 88.9667 60.7463 89.9V90.2ZM81.4777 90C81.4777 89.0267 81.2043 88.2867 80.6577 87.78C80.1243 87.26 79.3443 87 78.3177 87C77.611 87 76.9643 87.1667 76.3777 87.5C75.8043 87.82 75.371 88.26 75.0777 88.82V95H72.6777V85.04H74.9177L74.9977 86.1C75.9443 85.2333 77.131 84.8 78.5577 84.8C80.3043 84.8 81.6243 85.24 82.5177 86.12C83.4243 87 83.8777 88.2933 83.8777 90V95H81.4777V90ZM101.144 95.24C99.0376 95.2267 97.4309 94.86 96.3242 94.14C95.2176 93.42 94.6642 92.3733 94.6642 91V90.86H97.1442V91C97.1442 91.6133 97.4909 92.0867 98.1842 92.42C98.8909 92.7533 99.8842 92.92 101.164 92.92C103.831 92.92 105.164 92.3067 105.164 91.08V90.84C105.164 89.7067 103.838 89.14 101.184 89.14H98.9042V86.94L103.344 84.12H94.9042V81.88H107.324V84.12L102.664 87.04C104.291 87.16 105.531 87.54 106.384 88.18C107.238 88.82 107.664 89.6867 107.664 90.78V91.02C107.664 92.3933 107.111 93.44 106.004 94.16C104.898 94.88 103.278 95.24 101.144 95.24ZM111.684 95.24C111.244 95.24 110.884 95.1067 110.604 94.84C110.337 94.5733 110.204 94.2267 110.204 93.8C110.204 93.3733 110.337 93.0267 110.604 92.76C110.884 92.4933 111.244 92.36 111.684 92.36C112.124 92.36 112.477 92.4933 112.744 92.76C113.024 93.0267 113.164 93.3733 113.164 93.8C113.164 94.2267 113.024 94.5733 112.744 94.84C112.477 95.1067 112.124 95.24 111.684 95.24ZM116.523 93L122.523 89.58C123.563 88.98 124.317 88.5133 124.783 88.18C125.263 87.8333 125.583 87.52 125.743 87.24C125.917 86.9467 126.003 86.5933 126.003 86.18V85.98C126.003 85.3267 125.71 84.8267 125.123 84.48C124.537 84.1333 123.69 83.96 122.583 83.96C121.45 83.96 120.583 84.1533 119.983 84.54C119.397 84.9133 119.103 85.4733 119.103 86.22V86.62H116.603V86.2C116.603 84.7333 117.11 83.6067 118.123 82.82C119.15 82.0333 120.617 81.64 122.523 81.64C124.39 81.64 125.85 82.02 126.903 82.78C127.97 83.5267 128.503 84.5667 128.503 85.9V86.1C128.503 86.8067 128.37 87.42 128.103 87.94C127.837 88.46 127.37 88.98 126.703 89.5C126.05 90.02 125.09 90.64 123.823 91.36L121.343 92.76H128.903V95H116.523V93ZM138.361 95.24C136.908 95.24 135.654 95.04 134.601 94.64C133.548 94.2267 132.741 93.64 132.181 92.88C131.634 92.1067 131.361 91.2 131.361 90.16V87.06C131.361 85.3533 131.968 84.0267 133.181 83.08C134.394 82.12 136.094 81.64 138.281 81.64C140.241 81.64 141.781 82.0133 142.901 82.76C144.034 83.5067 144.601 84.54 144.601 85.86V86H142.121V85.86C142.121 85.2467 141.781 84.78 141.101 84.46C140.434 84.1267 139.494 83.96 138.281 83.96C136.814 83.96 135.708 84.22 134.961 84.74C134.214 85.2467 133.841 86.0067 133.841 87.02V87.86C134.948 87.0733 136.521 86.68 138.561 86.68C140.548 86.68 142.088 87.0267 143.181 87.72C144.274 88.4133 144.821 89.4 144.821 90.68V90.92C144.821 92.28 144.248 93.34 143.101 94.1C141.954 94.86 140.374 95.24 138.361 95.24ZM133.841 90.32C133.881 91.1467 134.288 91.7867 135.061 92.24C135.848 92.6933 136.961 92.92 138.401 92.92C139.641 92.92 140.601 92.76 141.281 92.44C141.974 92.12 142.321 91.6467 142.321 91.02V90.78C142.321 89.58 141.054 88.98 138.521 88.98C137.414 88.98 136.454 89.1 135.641 89.34C134.841 89.5667 134.241 89.8933 133.841 90.32ZM155.844 85.28C157.004 85.28 157.964 86.24 157.964 87.4C157.964 88.58 157.004 89.54 155.844 89.54C154.664 89.54 153.704 88.58 153.704 87.4C153.704 86.24 154.664 85.28 155.844 85.28ZM167.544 81.88H175.744C177.25 81.88 178.437 82.2467 179.304 82.98C180.184 83.7 180.624 84.6867 180.624 85.94V86.16C180.624 87.4133 180.184 88.4067 179.304 89.14C178.437 89.86 177.25 90.22 175.744 90.22H170.044V95H167.544V81.88ZM175.684 87.98C176.457 87.98 177.05 87.8267 177.464 87.52C177.877 87.2 178.084 86.7467 178.084 86.16V85.94C178.084 85.3533 177.877 84.9067 177.464 84.6C177.05 84.28 176.457 84.12 175.684 84.12H170.044V87.98H175.684ZM188.095 95.24C186.868 95.24 185.802 95.04 184.895 94.64C183.988 94.2267 183.288 93.64 182.795 92.88C182.315 92.12 182.075 91.2267 182.075 90.2V89.9C182.075 88.86 182.315 87.96 182.795 87.2C183.275 86.4267 183.968 85.8333 184.875 85.42C185.782 85.0067 186.855 84.8 188.095 84.8C189.322 84.8 190.382 85.0067 191.275 85.42C192.168 85.8333 192.855 86.4267 193.335 87.2C193.815 87.96 194.055 88.86 194.055 89.9V90.2C194.055 91.2267 193.815 92.12 193.335 92.88C192.855 93.64 192.168 94.2267 191.275 94.64C190.382 95.04 189.322 95.24 188.095 95.24ZM184.555 90.2C184.555 91.0933 184.862 91.7933 185.475 92.3C186.102 92.7933 186.968 93.04 188.075 93.04C189.168 93.04 190.022 92.7933 190.635 92.3C191.262 91.7933 191.575 91.0933 191.575 90.2V89.9C191.575 88.98 191.268 88.2667 190.655 87.76C190.042 87.2533 189.182 87 188.075 87C186.942 87 186.068 87.2533 185.455 87.76C184.855 88.2533 184.555 88.9667 184.555 89.9V90.2ZM199.726 95C198.713 95 197.933 94.76 197.386 94.28C196.84 93.8 196.566 93.1133 196.566 92.22V81.08H198.966V91.8C198.966 92.1867 199.06 92.4667 199.246 92.64C199.433 92.8 199.74 92.88 200.166 92.88H201.026V95H199.726ZM214.033 95C213.393 95 212.846 94.8933 212.393 94.68C211.953 94.4533 211.626 94.1267 211.413 93.7C210.893 94.2333 210.28 94.6267 209.573 94.88C208.866 95.12 208.033 95.24 207.073 95.24C205.62 95.24 204.493 94.98 203.693 94.46C202.893 93.9267 202.493 93.18 202.493 92.22C202.493 91.42 202.793 90.7733 203.393 90.28C204.006 89.7733 204.873 89.46 205.993 89.34L211.113 88.78C210.953 87.6467 209.933 87.08 208.053 87.08C207.08 87.08 206.32 87.22 205.773 87.5C205.226 87.78 204.953 88.1667 204.953 88.66V88.72H202.553V88.66C202.553 87.9 202.78 87.2267 203.233 86.64C203.686 86.0533 204.326 85.6 205.153 85.28C205.993 84.96 206.966 84.8 208.073 84.8C209.793 84.8 211.133 85.1867 212.093 85.96C213.053 86.72 213.533 87.7867 213.533 89.16V91.92C213.533 92.2267 213.626 92.4667 213.813 92.64C214 92.8 214.266 92.88 214.613 92.88H215.493V95H214.033ZM204.893 92.22C204.893 92.82 205.6 93.12 207.013 93.12C208.026 93.12 208.886 92.9667 209.593 92.66C210.313 92.3533 210.826 91.92 211.133 91.36V90.74L206.513 91.24C205.433 91.36 204.893 91.6867 204.893 92.22ZM217.269 85.04H219.509L219.569 86.02C220.423 85.3667 221.536 85.04 222.909 85.04H224.809V87.16H222.589C221.216 87.16 220.243 87.5467 219.669 88.32V95H217.269V85.04ZM226.723 85.04H229.123V95H226.723V85.04ZM227.923 83.68C227.456 83.68 227.076 83.54 226.783 83.26C226.489 82.98 226.343 82.62 226.343 82.18C226.343 81.7533 226.489 81.4 226.783 81.12C227.076 80.84 227.456 80.7 227.923 80.7C228.389 80.7 228.769 80.84 229.063 81.12C229.356 81.3867 229.503 81.74 229.503 82.18C229.503 82.62 229.356 82.98 229.063 83.26C228.769 83.54 228.389 83.68 227.923 83.68ZM243.252 95C242.612 95 242.065 94.8933 241.612 94.68C241.172 94.4533 240.845 94.1267 240.632 93.7C240.112 94.2333 239.498 94.6267 238.792 94.88C238.085 95.12 237.252 95.24 236.292 95.24C234.838 95.24 233.712 94.98 232.912 94.46C232.112 93.9267 231.712 93.18 231.712 92.22C231.712 91.42 232.012 90.7733 232.612 90.28C233.225 89.7733 234.092 89.46 235.212 89.34L240.332 88.78C240.172 87.6467 239.152 87.08 237.272 87.08C236.298 87.08 235.538 87.22 234.992 87.5C234.445 87.78 234.172 88.1667 234.172 88.66V88.72H231.772V88.66C231.772 87.9 231.998 87.2267 232.452 86.64C232.905 86.0533 233.545 85.6 234.372 85.28C235.212 84.96 236.185 84.8 237.292 84.8C239.012 84.8 240.352 85.1867 241.312 85.96C242.272 86.72 242.752 87.7867 242.752 89.16V91.92C242.752 92.2267 242.845 92.4667 243.032 92.64C243.218 92.8 243.485 92.88 243.832 92.88H244.712V95H243.252ZM234.112 92.22C234.112 92.82 234.818 93.12 236.232 93.12C237.245 93.12 238.105 92.9667 238.812 92.66C239.532 92.3533 240.045 91.92 240.352 91.36V90.74L235.732 91.24C234.652 91.36 234.112 91.6867 234.112 92.22ZM246.488 85.04H248.728L248.788 86.02C249.641 85.3667 250.755 85.04 252.128 85.04H254.028V87.16H251.808C250.435 87.16 249.461 87.5467 248.888 88.32V95H246.488V85.04ZM260.73 95.24C259.517 95.24 258.463 95.04 257.57 94.64C256.677 94.2267 255.983 93.64 255.49 92.88C255.01 92.12 254.77 91.2333 254.77 90.22V89.9C254.77 88.86 255.01 87.96 255.49 87.2C255.97 86.4267 256.657 85.8333 257.55 85.42C258.457 85.0067 259.517 84.8 260.73 84.8C261.837 84.8 262.83 84.9867 263.71 85.36C264.59 85.7333 265.277 86.2533 265.77 86.92C266.263 87.5867 266.51 88.34 266.51 89.18V89.24H264.03V89.18C264.03 88.54 263.723 88.02 263.11 87.62C262.497 87.2067 261.703 87 260.73 87C259.623 87 258.763 87.2533 258.15 87.76C257.55 88.2667 257.25 88.9867 257.25 89.92V90.2C257.25 91.1067 257.55 91.8067 258.15 92.3C258.763 92.7933 259.623 93.04 260.73 93.04C261.703 93.04 262.497 92.84 263.11 92.44C263.723 92.04 264.03 91.52 264.03 90.88V90.82H266.51V90.88C266.51 91.7333 266.27 92.4933 265.79 93.16C265.31 93.8133 264.63 94.3267 263.75 94.7C262.883 95.06 261.877 95.24 260.73 95.24ZM268.889 81.08H271.289V86.04C272.235 85.2133 273.395 84.8 274.769 84.8C276.502 84.8 277.822 85.24 278.729 86.12C279.635 87 280.089 88.2933 280.089 90V95H277.689V90C277.689 89.0267 277.415 88.2867 276.869 87.78C276.335 87.26 275.555 87 274.529 87C273.822 87 273.175 87.1667 272.589 87.5C272.015 87.8333 271.582 88.28 271.289 88.84V95H268.889V81.08Z" fill="#826981"/>
</svg>
