<svg width="1481" height="545" viewBox="0 0 1481 545" fill="none" xmlns="http://www.w3.org/2000/svg">
<path d="M364.077 224.146C364.077 232.477 362.467 240.334 359.248 247.717C356.218 255.101 351.957 261.538 346.465 267.029C340.973 272.519 334.535 276.874 327.149 280.092C319.763 283.121 311.904 284.636 303.572 284.636H243.919V252.545H303.572C311.526 252.545 318.248 249.8 323.74 244.31C329.232 238.819 331.978 232.098 331.978 224.146C331.978 216.195 329.232 209.474 323.74 203.983C318.248 198.493 311.526 195.747 303.572 195.747H294.198C285.676 195.747 277.533 194.517 269.769 192.056C262.194 189.594 255.376 185.997 249.316 181.264C243.446 176.531 238.711 170.756 235.113 163.941C231.704 156.936 230 148.889 230 139.802C230 129.01 231.894 119.922 235.681 112.539C239.469 104.966 244.582 98.8126 251.021 94.0795C257.649 89.3463 265.224 85.9385 273.745 83.8559C282.457 81.584 291.641 80.448 301.299 80.448C306.034 80.448 310.863 80.6373 315.787 81.016C320.9 81.3946 325.729 81.8679 330.274 82.4359C335.008 83.0039 339.364 83.7612 343.341 84.7078C347.507 85.4651 351.01 86.3171 353.851 87.2637L343.341 117.651C341.826 117.083 339.553 116.515 336.523 115.947C333.682 115.379 330.368 114.811 326.581 114.243C322.793 113.675 318.722 113.296 314.366 113.107C310.011 112.728 305.655 112.539 301.299 112.539C296.376 112.539 291.547 112.917 286.812 113.675C282.078 114.243 277.817 115.473 274.03 117.367C270.431 119.26 267.496 122.005 265.224 125.602C263.141 129.199 262.099 133.933 262.099 139.802C262.099 144.156 263.046 147.848 264.94 150.877C266.833 153.906 269.295 156.368 272.325 158.261C275.355 160.154 278.764 161.574 282.551 162.521C286.339 163.278 290.221 163.657 294.198 163.657H303.572C311.904 163.657 319.763 165.266 327.149 168.485C334.535 171.514 340.973 175.774 346.465 181.264C351.957 186.755 356.218 193.192 359.248 200.575C362.467 207.959 364.077 215.816 364.077 224.146Z" fill="#664D66"/>
<path d="M522.308 284.92H443.055C436.806 284.92 430.84 283.879 425.159 281.796C419.667 279.714 414.744 276.779 410.388 272.992C406.032 269.017 402.529 264.378 399.878 259.077C397.416 253.776 396.185 247.907 396.185 241.47C396.185 235.411 397.416 229.731 399.878 224.43C402.34 219.129 405.654 214.585 409.82 210.799C413.986 206.823 418.91 203.699 424.591 201.427C430.272 199.155 436.427 198.019 443.055 198.019C450.63 198.019 457.637 199.534 464.076 202.563C461.803 196.315 457.826 191.772 452.145 188.932C446.653 185.903 441.161 184.388 435.669 184.388C431.503 184.388 427.716 185.051 424.307 186.376L412.376 156.557C419.762 153.717 427.526 152.297 435.669 152.297C444.191 152.297 452.24 153.906 459.815 157.125C467.39 160.344 474.018 164.793 479.699 170.472C485.38 176.152 489.83 182.779 493.05 190.352C496.269 197.925 497.879 205.971 497.879 214.491V252.829H522.308V284.92ZM465.78 252.829V236.642C462.939 234.749 459.625 233.234 455.838 232.098C452.24 230.773 447.979 230.11 443.055 230.11C439.836 230.11 436.522 231.057 433.113 232.95C429.893 234.843 428.284 237.683 428.284 241.47C428.284 245.256 429.893 248.096 433.113 249.989C436.522 251.883 439.836 252.829 443.055 252.829H465.78Z" fill="#664D66"/>
<path d="M710.044 284.92H653.232V219.035C653.232 214.301 652.285 209.947 650.391 205.971C648.687 201.806 646.225 198.209 643.005 195.18C639.975 191.961 636.377 189.5 632.211 187.796C628.234 185.903 623.879 184.956 619.144 184.956C612.895 184.956 607.024 186.565 601.532 189.784C596.23 193.002 592.064 197.357 589.034 202.847V419H556.935V84.4238H589.034V160.249C598.313 155.326 608.35 152.865 619.144 152.865C628.234 152.865 636.756 154.664 644.71 158.261C652.853 161.669 659.86 166.402 665.73 172.46C671.79 178.329 676.525 185.335 679.933 193.476C683.532 201.427 685.331 209.947 685.331 219.035V252.829H710.044V284.92Z" fill="#664D66"/>
<path d="M877.232 284.92H799.399C789.362 284.92 779.893 283.027 770.993 279.24C762.282 275.454 754.612 270.247 747.984 263.621C741.356 256.994 736.148 249.327 732.36 240.618C728.573 231.719 726.679 222.253 726.679 212.219V156.841H758.778V212.219C758.778 217.899 759.82 223.2 761.903 228.122C763.986 233.045 766.827 237.399 770.425 241.186C774.212 244.783 778.568 247.623 783.492 249.705C788.415 251.788 793.718 252.829 799.399 252.829H820.704V156.841H852.803V252.829H877.232V284.92Z" fill="#664D66"/>
<path d="M1017.86 160.249L1002.23 188.364C996.93 185.335 991.249 183.82 985.189 183.82C980.265 183.82 975.625 184.767 971.27 186.66C966.914 188.553 963.126 191.109 959.907 194.328C956.688 197.546 954.036 201.333 951.953 205.687C950.06 210.042 949.113 214.68 949.113 219.603V284.92H916.73V188.932H892.3V156.841H949.113V163.089C954.415 158.545 960.096 155.516 966.156 154.001C972.216 152.487 978.655 151.729 985.473 151.729C997.024 151.729 1007.82 154.569 1017.86 160.249Z" fill="#664D66"/>
<path d="M1098.97 284.92H1042.44V0H1074.54V252.829H1098.97V284.92Z" fill="#664D66"/>
<path d="M1252 219.319C1252 224.43 1251.43 229.542 1250.3 234.654H1155.7C1158.73 240.144 1162.9 244.594 1168.2 248.001C1173.5 251.22 1179.37 252.829 1185.81 252.829H1204.56V284.92H1185.81C1176.72 284.92 1168.11 283.216 1159.96 279.808C1152.01 276.211 1145 271.478 1138.94 265.609C1133.07 259.55 1128.34 252.545 1124.74 244.594C1121.33 236.453 1119.63 227.838 1119.63 218.751C1119.63 209.663 1121.33 201.143 1124.74 193.192C1128.34 185.051 1133.07 178.045 1138.94 172.176C1145 166.118 1152.01 161.385 1159.96 157.977C1168.11 154.38 1176.72 152.581 1185.81 152.581C1195.47 152.581 1204.28 154.38 1212.23 157.977C1220.37 161.574 1227.38 166.497 1233.25 172.744C1239.12 178.803 1243.67 185.903 1246.89 194.044C1250.3 201.995 1252 210.42 1252 219.319ZM1217.34 205.403C1215.07 199.723 1211 194.706 1205.13 190.352C1199.45 185.997 1193.01 183.82 1185.81 183.82C1182.22 183.82 1178.71 184.388 1175.3 185.524C1172.08 186.66 1169.05 188.269 1166.21 190.352C1163.56 192.245 1161.19 194.517 1159.11 197.167C1157.22 199.818 1155.8 202.563 1154.85 205.403H1217.34Z" fill="#664D66"/>
<path d="M32.9031 545C22.1031 545 13.9193 543.092 8.35155 539.276C2.78385 535.461 0 529.871 0 522.508V521.604H12.5776V522.508C12.5776 530.005 19.554 533.754 33.5068 533.754C39.5441 533.754 44.1391 533.051 47.2919 531.645C50.5118 530.239 52.1217 528.198 52.1217 525.52V524.817C52.1217 522.474 51.1826 520.734 49.3044 519.596C47.4261 518.458 44.005 517.554 39.041 516.884L23.1429 514.675C8.58634 512.667 1.30808 506.776 1.30808 497.003V495.999C1.30808 489.974 3.95776 485.254 9.25714 481.84C14.6236 478.426 22.1702 476.719 31.8969 476.719C42.1603 476.719 49.9752 478.56 55.3416 482.242C60.7752 485.924 63.4919 491.279 63.4919 498.308V499.212H50.9143V498.308C50.9143 491.413 44.5752 487.966 31.8969 487.966C26.128 487.966 21.7006 488.635 18.6149 489.974C15.5963 491.313 14.087 493.221 14.087 495.697V496.501C14.087 498.509 14.959 500.049 16.7031 501.12C18.5143 502.124 21.6335 502.927 26.0609 503.53L42.0596 505.739C49.9081 506.81 55.677 508.851 59.3665 511.864C63.0559 514.809 64.9006 518.926 64.9006 524.215V525.219C64.9006 531.444 62.1168 536.298 56.5491 539.779C50.9814 543.26 43.0994 545 32.9031 545Z" fill="#826981"/>
<path d="M105.399 545C99.2947 545 93.9953 543.996 89.5009 541.988C85.0736 539.912 81.6525 537 79.2376 533.252C76.8227 529.436 75.6152 524.984 75.6152 519.897V517.889C75.6152 512.734 76.8227 508.249 79.2376 504.433C81.6525 500.618 85.1071 497.706 89.6015 495.697C94.096 493.622 99.3618 492.585 105.399 492.585C114.522 492.585 121.633 494.794 126.731 499.212C131.896 503.63 134.479 509.722 134.479 517.487V522.809H88.2935C88.763 526.357 90.4736 529.101 93.4252 531.043C96.4438 532.984 100.435 533.955 105.399 533.955C110.028 533.955 113.784 533.285 116.669 531.946C119.553 530.608 121.163 528.8 121.498 526.524H134.479C133.808 532.415 130.923 536.967 125.825 540.18C120.794 543.393 113.985 545 105.399 545ZM121.398 512.768C120.593 509.889 118.782 507.646 115.964 506.04C113.147 504.433 109.592 503.63 105.298 503.63C100.871 503.63 97.2152 504.433 94.3307 506.04C91.4463 507.646 89.568 509.889 88.696 512.768H121.398Z" fill="#826981"/>
<path d="M202.891 543.795C199.671 543.795 196.921 543.26 194.64 542.188C192.426 541.05 190.783 539.41 189.709 537.268C187.093 539.946 184.007 541.921 180.452 543.193C176.897 544.398 172.704 545 167.875 545C160.563 545 154.894 543.695 150.87 541.084C146.845 538.406 144.832 534.657 144.832 529.838C144.832 525.821 146.342 522.575 149.36 520.098C152.446 517.554 156.806 515.981 162.441 515.378L188.2 512.567C187.395 506.877 182.263 504.032 172.805 504.032C167.908 504.032 164.085 504.735 161.334 506.14C158.584 507.546 157.209 509.487 157.209 511.964V512.265H145.134V511.964C145.134 508.149 146.275 504.768 148.555 501.823C150.836 498.877 154.056 496.601 158.215 494.994C162.441 493.388 167.338 492.585 172.906 492.585C181.559 492.585 188.301 494.526 193.13 498.409C197.96 502.224 200.375 507.58 200.375 514.475V528.331C200.375 529.871 200.845 531.076 201.784 531.946C202.723 532.75 204.065 533.151 205.809 533.151H210.236V543.795H202.891ZM156.907 529.838C156.907 532.85 160.462 534.356 167.573 534.356C172.671 534.356 176.998 533.586 180.553 532.047C184.175 530.507 186.758 528.331 188.301 525.52V522.407L165.057 524.917C159.624 525.52 156.907 527.16 156.907 529.838Z" fill="#826981"/>
<path d="M245.938 545C236.681 545 229.437 543.561 224.204 540.682C219.039 537.737 216.456 533.653 216.456 528.432V527.729H228.531V528.432C228.531 530.44 229.94 531.913 232.757 532.85C235.575 533.72 240.069 534.155 246.24 534.155C256.638 534.155 261.837 532.515 261.837 529.235V528.633C261.837 527.428 261.099 526.524 259.623 525.922C258.147 525.319 255.43 524.817 251.473 524.415L239.197 523.21C231.885 522.541 226.552 521.068 223.198 518.792C219.844 516.449 218.167 513.169 218.167 508.952V507.948C218.167 503.128 220.582 499.379 225.412 496.702C230.309 493.957 237.117 492.585 245.838 492.585C254.827 492.585 261.77 494.024 266.666 496.902C271.63 499.781 274.112 503.864 274.112 509.153V509.856H262.038V509.153C262.038 507.144 260.696 505.705 258.013 504.835C255.397 503.898 251.204 503.429 245.435 503.429C240.673 503.429 237.017 503.797 234.468 504.534C231.919 505.27 230.644 506.308 230.644 507.646V508.249C230.644 509.521 231.315 510.492 232.657 511.161C233.998 511.763 236.212 512.232 239.297 512.567L251.775 513.772C259.69 514.508 265.425 516.048 268.981 518.391C272.536 520.734 274.314 524.081 274.314 528.432V529.436C274.314 534.323 271.798 538.138 266.767 540.883C261.736 543.628 254.793 545 245.938 545Z" fill="#826981"/>
<path d="M314.711 545C308.539 545 303.173 543.996 298.611 541.988C294.05 539.912 290.528 536.967 288.046 533.151C285.631 529.336 284.424 524.851 284.424 519.696V518.19C284.424 512.968 285.631 508.45 288.046 504.634C290.461 500.751 293.949 497.773 298.511 495.697C303.072 493.622 308.472 492.585 314.711 492.585C320.882 492.585 326.215 493.622 330.709 495.697C335.204 497.773 338.659 500.751 341.073 504.634C343.488 508.45 344.696 512.968 344.696 518.19V519.696C344.696 524.851 343.488 529.336 341.073 533.151C338.659 536.967 335.204 539.912 330.709 541.988C326.215 543.996 320.882 545 314.711 545ZM296.901 519.696C296.901 524.181 298.444 527.696 301.529 530.239C304.682 532.716 309.042 533.955 314.61 533.955C320.111 533.955 324.404 532.716 327.49 530.239C330.642 527.696 332.219 524.181 332.219 519.696V518.19C332.219 513.571 330.676 509.989 327.59 507.446C324.504 504.902 320.178 503.63 314.61 503.63C308.908 503.63 304.514 504.902 301.429 507.446C298.41 509.923 296.901 513.504 296.901 518.19V519.696Z" fill="#826981"/>
<path d="M401.202 518.692C401.202 513.805 399.826 510.09 397.076 507.546C394.393 504.935 390.469 503.63 385.303 503.63C381.748 503.63 378.495 504.467 375.543 506.14C372.659 507.747 370.479 509.956 369.003 512.768V543.795H356.928V493.79H368.198L368.6 499.111C373.363 494.76 379.333 492.585 386.511 492.585C395.299 492.585 401.939 494.794 406.434 499.212C410.995 503.63 413.276 510.123 413.276 518.692V543.795H401.202V518.692Z" fill="#826981"/>
<path d="M500.145 545C489.546 544.933 481.463 543.092 475.896 539.477C470.328 535.862 467.544 530.608 467.544 523.713V523.01H480.021V523.713C480.021 526.792 481.765 529.168 485.253 530.842C488.809 532.515 493.806 533.352 500.246 533.352C513.662 533.352 520.37 530.273 520.37 524.114V522.909C520.37 517.219 513.695 514.374 500.346 514.374H488.876V503.329L511.214 489.171H468.751V477.924H531.237V489.171L507.792 503.831C515.976 504.433 522.215 506.341 526.508 509.554C530.801 512.768 532.948 517.119 532.948 522.608V523.813C532.948 530.708 530.164 535.963 524.596 539.578C519.028 543.193 510.878 545 500.145 545Z" fill="#826981"/>
<path d="M553.17 545C550.956 545 549.145 544.331 547.737 542.992C546.395 541.653 545.724 539.912 545.724 537.77C545.724 535.628 546.395 533.888 547.737 532.549C549.145 531.21 550.956 530.541 553.17 530.541C555.384 530.541 557.162 531.21 558.503 532.549C559.912 533.888 560.616 535.628 560.616 537.77C560.616 539.912 559.912 541.653 558.503 542.992C557.162 544.331 555.384 545 553.17 545Z" fill="#826981"/>
<path d="M577.519 533.754L607.705 516.583C612.938 513.571 616.728 511.228 619.075 509.554C621.49 507.814 623.1 506.241 623.905 504.835C624.777 503.362 625.213 501.588 625.213 499.513V498.509C625.213 495.229 623.738 492.718 620.786 490.978C617.834 489.238 613.575 488.367 608.007 488.367C602.305 488.367 597.945 489.338 594.926 491.279C591.975 493.154 590.499 495.965 590.499 499.714V501.722H577.921V499.613C577.921 492.25 580.47 486.593 585.569 482.644C590.734 478.694 598.113 476.719 607.705 476.719C617.097 476.719 624.442 478.627 629.741 482.443C635.108 486.192 637.791 491.413 637.791 498.107V499.111C637.791 502.659 637.12 505.739 635.779 508.349C634.437 510.96 632.089 513.571 628.735 516.182C625.448 518.792 620.618 521.905 614.246 525.52L601.769 532.549H639.803V543.795H577.519V533.754Z" fill="#826981"/>
<path d="M687.385 545C680.074 545 673.768 543.996 668.469 541.988C663.169 539.912 659.111 536.967 656.293 533.151C653.543 529.269 652.168 524.717 652.168 519.495V503.931C652.168 495.363 655.22 488.702 661.325 483.949C667.429 479.129 675.982 476.719 686.983 476.719C696.844 476.719 704.592 478.594 710.226 482.343C715.928 486.091 718.779 491.279 718.779 497.906V498.609H706.302V497.906C706.302 494.827 704.592 492.484 701.171 490.878C697.816 489.204 693.087 488.367 686.983 488.367C679.604 488.367 674.036 489.673 670.28 492.283C666.523 494.827 664.645 498.643 664.645 503.73V507.948C670.213 503.998 678.128 502.023 688.392 502.023C698.387 502.023 706.134 503.764 711.635 507.245C717.136 510.726 719.886 515.68 719.886 522.106V523.311C719.886 530.139 717.002 535.461 711.233 539.276C705.464 543.092 697.515 545 687.385 545ZM664.645 520.298C664.846 524.449 666.892 527.662 670.783 529.938C674.741 532.214 680.342 533.352 687.587 533.352C693.825 533.352 698.655 532.549 702.076 530.942C705.564 529.336 707.308 526.959 707.308 523.813V522.608C707.308 516.583 700.936 513.571 688.19 513.571C682.623 513.571 677.793 514.173 673.701 515.378C669.676 516.516 666.657 518.156 664.645 520.298Z" fill="#826981"/>
<path d="M815.629 494.994C821.465 494.994 826.295 499.814 826.295 505.638C826.295 511.563 821.465 516.382 815.629 516.382C809.693 516.382 804.863 511.563 804.863 505.638C804.863 499.814 809.693 494.994 815.629 494.994Z" fill="#826981"/>
<path d="M914.781 477.924H956.035C963.615 477.924 969.585 479.765 973.946 483.447C978.373 487.062 980.587 492.016 980.587 498.308V499.413C980.587 505.705 978.373 510.692 973.946 514.374C969.585 517.989 963.615 519.796 956.035 519.796H927.358V543.795H914.781V477.924ZM955.733 508.55C959.624 508.55 962.609 507.78 964.689 506.241C966.768 504.634 967.808 502.358 967.808 499.413V498.308C967.808 495.363 966.768 493.12 964.689 491.58C962.609 489.974 959.624 489.171 955.733 489.171H927.358V508.55H955.733Z" fill="#826981"/>
<path d="M1018.17 545C1012 545 1006.64 543.996 1002.07 541.988C997.513 539.912 993.992 536.967 991.51 533.151C989.095 529.336 987.887 524.851 987.887 519.696V518.19C987.887 512.968 989.095 508.45 991.51 504.634C993.925 500.751 997.413 497.773 1001.97 495.697C1006.54 493.622 1011.94 492.585 1018.17 492.585C1024.35 492.585 1029.68 493.622 1034.17 495.697C1038.67 497.773 1042.12 500.751 1044.54 504.634C1046.95 508.45 1048.16 512.968 1048.16 518.19V519.696C1048.16 524.851 1046.95 529.336 1044.54 533.151C1042.12 536.967 1038.67 539.912 1034.17 541.988C1029.68 543.996 1024.35 545 1018.17 545ZM1000.36 519.696C1000.36 524.181 1001.91 527.696 1004.99 530.239C1008.15 532.716 1012.51 533.955 1018.07 533.955C1023.57 533.955 1027.87 532.716 1030.95 530.239C1034.11 527.696 1035.68 524.181 1035.68 519.696V518.19C1035.68 513.571 1034.14 509.989 1031.05 507.446C1027.97 504.902 1023.64 503.63 1018.07 503.63C1012.37 503.63 1007.98 504.902 1004.89 507.446C1001.87 509.923 1000.36 513.504 1000.36 518.19V519.696Z" fill="#826981"/>
<path d="M1076.69 543.795C1071.59 543.795 1067.67 542.59 1064.92 540.18C1062.17 537.77 1060.79 534.323 1060.79 529.838V473.908H1072.87V527.729C1072.87 529.67 1073.34 531.076 1074.28 531.946C1075.22 532.75 1076.76 533.151 1078.91 533.151H1083.23V543.795H1076.69Z" fill="#826981"/>
<path d="M1148.67 543.795C1145.45 543.795 1142.7 543.26 1140.42 542.188C1138.21 541.05 1136.56 539.41 1135.49 537.268C1132.87 539.946 1129.79 541.921 1126.23 543.193C1122.68 544.398 1118.48 545 1113.65 545C1106.34 545 1100.67 543.695 1096.65 541.084C1092.62 538.406 1090.61 534.657 1090.61 529.838C1090.61 525.821 1092.12 522.575 1095.14 520.098C1098.23 517.554 1102.59 515.981 1108.22 515.378L1133.98 512.567C1133.17 506.877 1128.04 504.032 1118.58 504.032C1113.69 504.032 1109.86 504.735 1107.11 506.14C1104.36 507.546 1102.99 509.487 1102.99 511.964V512.265H1090.91V511.964C1090.91 508.149 1092.05 504.768 1094.33 501.823C1096.62 498.877 1099.84 496.601 1103.99 494.994C1108.22 493.388 1113.12 492.585 1118.69 492.585C1127.34 492.585 1134.08 494.526 1138.91 498.409C1143.74 502.224 1146.15 507.58 1146.15 514.475V528.331C1146.15 529.871 1146.62 531.076 1147.56 531.946C1148.5 532.75 1149.84 533.151 1151.59 533.151H1156.02V543.795H1148.67ZM1102.69 529.838C1102.69 532.85 1106.24 534.356 1113.35 534.356C1118.45 534.356 1122.78 533.586 1126.33 532.047C1129.95 530.507 1132.54 528.331 1134.08 525.52V522.407L1110.84 524.917C1105.4 525.52 1102.69 527.16 1102.69 529.838Z" fill="#826981"/>
<path d="M1164.95 493.79H1176.22L1176.52 498.71C1180.82 495.43 1186.42 493.79 1193.33 493.79H1202.89V504.433H1191.72C1184.81 504.433 1179.91 506.375 1177.03 510.257V543.795H1164.95V493.79Z" fill="#826981"/>
<path d="M1212.51 493.79H1224.59V543.795H1212.51V493.79ZM1218.55 486.961C1216.2 486.961 1214.29 486.259 1212.81 484.853C1211.34 483.447 1210.6 481.64 1210.6 479.431C1210.6 477.288 1211.34 475.514 1212.81 474.109C1214.29 472.703 1216.2 472 1218.55 472C1220.9 472 1222.81 472.703 1224.28 474.109C1225.76 475.448 1226.5 477.221 1226.5 479.431C1226.5 481.64 1225.76 483.447 1224.28 484.853C1222.81 486.259 1220.9 486.961 1218.55 486.961Z" fill="#826981"/>
<path d="M1295.67 543.795C1292.45 543.795 1289.7 543.26 1287.42 542.188C1285.21 541.05 1283.56 539.41 1282.49 537.268C1279.87 539.946 1276.79 541.921 1273.23 543.193C1269.68 544.398 1265.49 545 1260.66 545C1253.34 545 1247.68 543.695 1243.65 541.084C1239.63 538.406 1237.61 534.657 1237.61 529.838C1237.61 525.821 1239.12 522.575 1242.14 520.098C1245.23 517.554 1249.59 515.981 1255.22 515.378L1280.98 512.567C1280.18 506.877 1275.04 504.032 1265.59 504.032C1260.69 504.032 1256.87 504.735 1254.12 506.14C1251.36 507.546 1249.99 509.487 1249.99 511.964V512.265H1237.92V511.964C1237.92 508.149 1239.06 504.768 1241.34 501.823C1243.62 498.877 1246.84 496.601 1251 494.994C1255.22 493.388 1260.12 492.585 1265.69 492.585C1274.34 492.585 1281.08 494.526 1285.91 498.409C1290.74 502.224 1293.16 507.58 1293.16 514.475V528.331C1293.16 529.871 1293.63 531.076 1294.56 531.946C1295.5 532.75 1296.85 533.151 1298.59 533.151H1303.02V543.795H1295.67ZM1249.69 529.838C1249.69 532.85 1253.24 534.356 1260.35 534.356C1265.45 534.356 1269.78 533.586 1273.33 532.047C1276.96 530.507 1279.54 528.331 1281.08 525.52V522.407L1257.84 524.917C1252.4 525.52 1249.69 527.16 1249.69 529.838Z" fill="#826981"/>
<path d="M1311.95 493.79H1323.22L1323.53 498.71C1327.82 495.43 1333.42 493.79 1340.33 493.79H1349.89V504.433H1338.72C1331.81 504.433 1326.91 506.375 1324.03 510.257V543.795H1311.95V493.79Z" fill="#826981"/>
<path d="M1383.61 545C1377.5 545 1372.2 543.996 1367.71 541.988C1363.21 539.912 1359.73 536.967 1357.24 533.151C1354.83 529.336 1353.62 524.884 1353.62 519.796V518.19C1353.62 512.968 1354.83 508.45 1357.24 504.634C1359.66 500.751 1363.11 497.773 1367.61 495.697C1372.17 493.622 1377.5 492.585 1383.61 492.585C1389.17 492.585 1394.17 493.522 1398.6 495.396C1403.03 497.271 1406.48 499.881 1408.96 503.228C1411.45 506.575 1412.69 510.358 1412.69 514.575V514.876H1400.21V514.575C1400.21 511.362 1398.67 508.751 1395.58 506.743C1392.49 504.668 1388.5 503.63 1383.61 503.63C1378.04 503.63 1373.71 504.902 1370.63 507.446C1367.61 509.989 1366.1 513.604 1366.1 518.29V519.696C1366.1 524.248 1367.61 527.762 1370.63 530.239C1373.71 532.716 1378.04 533.955 1383.61 533.955C1388.5 533.955 1392.49 532.95 1395.58 530.942C1398.67 528.934 1400.21 526.323 1400.21 523.11V522.809H1412.69V523.11C1412.69 527.394 1411.48 531.21 1409.06 534.557C1406.65 537.837 1403.23 540.414 1398.8 542.289C1394.44 544.096 1389.38 545 1383.61 545Z" fill="#826981"/>
<path d="M1424.65 473.908H1436.73V498.81C1441.49 494.66 1447.33 492.585 1454.23 492.585C1462.96 492.585 1469.6 494.794 1474.16 499.212C1478.72 503.63 1481 510.123 1481 518.692V543.795H1468.93V518.692C1468.93 513.805 1467.55 510.09 1464.8 507.546C1462.12 504.935 1458.19 503.63 1453.03 503.63C1449.47 503.63 1446.22 504.467 1443.27 506.14C1440.38 507.814 1438.2 510.056 1436.73 512.868V543.795H1424.65V473.908Z" fill="#826981"/>
</svg>
