<svg width="812" height="419" viewBox="0 0 812 419" fill="none" xmlns="http://www.w3.org/2000/svg">
<path d="M492.235 177.721C492.301 177.201 492.367 176.686 492.431 176.175C492.961 171.998 493.456 168.094 494.299 164.014C495.035 160.45 492.604 158.269 488.87 159.142C485.135 160.016 481.511 163.612 480.775 167.175C479.819 171.802 479.233 176.424 478.686 180.744L478.685 180.752L478.685 180.752C478.685 180.753 478.685 180.753 478.685 180.754C478.492 182.274 478.304 183.756 478.106 185.19C478.019 185.826 477.931 186.462 477.843 187.1L477.843 187.1L477.843 187.101L477.843 187.101L477.842 187.103L477.842 187.103L477.842 187.11C476.505 196.784 475.143 206.648 474.393 216.362C474.108 220.054 473.883 224.275 473.716 227.822C473.688 228.113 473.648 228.529 473.624 228.909C473.624 228.91 473.624 228.91 473.624 228.91L473.622 228.938L473.622 228.938L473.622 228.941C473.606 229.161 473.537 230.13 473.738 230.974C473.793 231.204 473.982 231.978 474.613 232.649C475.281 233.359 477.411 234.761 481.211 232.91C483.969 231.567 485.511 229.404 485.798 229.002L485.798 229.002L485.807 228.99C485.807 228.99 485.807 228.99 485.807 228.989C485.807 228.989 485.807 228.989 485.807 228.989C486.306 228.29 486.61 227.702 486.742 227.438C487.684 225.557 488.166 223.643 488.426 222.546C488.623 221.718 488.728 221.216 488.81 220.827L488.81 220.827C488.81 220.827 488.81 220.827 488.81 220.826C488.891 220.442 488.946 220.179 489.043 219.819C489.493 218.139 489.938 216.47 490.38 214.808C491.259 211.506 492.132 208.23 493.031 204.933C496.659 191.64 501.53 180.405 511.682 169.793C513.845 167.531 516.905 165.603 520.346 164.385C524.146 163.041 527.41 159.184 527.637 155.77C527.864 152.357 524.967 150.68 521.168 152.024C515.36 154.08 508.9 157.773 503.544 163.372C498.996 168.127 495.294 172.92 492.235 177.721Z" fill="#B7B6FF" stroke="#B7B6FF" stroke-linecap="round"/>
<path d="M156.608 115.553C148.664 116.953 137.802 121.844 126.968 128.023C115.922 134.322 103.962 142.501 93.4865 151.3C83.1749 159.961 73.4783 169.913 67.9642 179.734C65.1384 184.767 63.3235 189.929 63.2897 194.785C63.2558 199.661 65.0222 203.738 68.4624 206.93C73.3584 211.473 81.1372 214.822 88.6845 217.399C94.2758 219.308 100.122 220.911 105.007 222.25L105.011 222.251C106.764 222.732 108.392 223.178 109.842 223.593C113.346 224.595 117.079 225.584 120.887 226.593L120.888 226.594C131.931 229.52 143.606 232.614 152.334 236.72C161.649 241.102 167.367 244.443 167.536 253.617C167.727 263.972 162.061 273.144 152.401 285.986C140.427 301.903 121.832 319.246 103.132 330.222C84.6254 341.086 67.071 345.203 54.8429 337.127C48.8694 333.182 45.1569 324.882 44.3134 314.685C43.4706 304.496 45.5772 293.407 49.9595 284.649C51.8843 280.802 50.6019 277.474 47.0951 277.215C43.5883 276.956 39.1851 279.865 37.2603 283.712C31.1827 295.859 28.8848 309.619 29.8623 321.437C30.8392 333.246 35.172 344.111 43.6388 349.703C60.286 360.698 84.0385 354.362 106.069 341.43C127.909 328.61 149.086 308.811 162.921 290.419C173.002 277.017 182.309 263.158 182.02 247.533C181.747 232.737 171.639 227.869 162.591 223.613C153.12 219.157 140.283 215.759 129.092 212.796L129.075 212.792C125.432 211.827 121.962 210.909 118.835 210.014C117.228 209.554 115.495 209.079 113.678 208.581L113.675 208.58C108.846 207.256 103.414 205.767 98.0995 203.952C90.7312 201.436 84.2867 198.51 80.5791 195.069C78.4583 193.102 77.7619 190.994 77.7759 188.98C77.79 186.945 78.5339 184.512 80.1893 181.563C83.6379 175.421 90.5956 167.865 99.9277 160.027C109.095 152.326 119.769 145.012 129.643 139.381C139.73 133.629 148.076 130.15 152.925 129.295C156.794 128.612 160.755 124.983 161.772 121.188C162.789 117.394 160.477 114.87 156.608 115.553Z" fill="#B7B6FF" stroke="#B7B6FF" stroke-linecap="round"/>
<path d="M223.949 215.172C224.033 214.834 224.222 214.068 224.294 213.521L224.295 213.514C224.295 213.514 224.295 213.514 224.295 213.514C224.308 213.412 224.364 212.985 224.343 212.488C224.343 212.488 224.343 212.488 224.343 212.488L224.343 212.478C224.335 212.29 224.302 211.509 223.915 210.73C223.715 210.328 223.218 209.497 222.058 209.017C220.676 208.445 218.701 208.534 216.524 209.57C214.68 210.448 213.406 211.666 212.835 212.262C212.208 212.915 211.79 213.487 211.576 213.794C211.148 214.409 210.887 214.909 210.794 215.088C210.579 215.506 210.444 215.84 210.404 215.939C210.241 216.341 210.107 216.753 210.052 216.925L210.051 216.928L210.051 216.928L210.047 216.939C210.047 216.939 210.047 216.939 210.047 216.939C208.577 221.478 207.624 226.053 206.833 230.321C206.615 231.341 206.421 232.353 206.318 233.167L206.234 233.636C205.913 235.437 205.605 237.161 205.281 238.783C204.561 242.388 203.761 246.433 202.923 250.713C200.104 260.694 195.971 270.866 191.688 281.018C182.645 292.601 170.648 304.492 158.897 313.867C155.185 314.75 151.504 318.236 150.53 321.874C149.513 325.669 151.825 328.192 155.694 327.51C155.725 327.505 155.77 327.498 155.835 327.487L155.842 327.486C156.454 327.39 158.25 327.107 160.19 326.156C161.306 325.609 162.235 324.981 162.917 324.486C163.562 324.018 164.232 323.487 164.82 323.018C175.049 314.857 185.455 305.012 194.462 294.795C193.1 302.107 191.92 309.273 190.753 316.367L190.752 316.37C188.222 331.739 185.748 346.765 181.597 362.259C180.58 366.053 182.892 368.577 186.761 367.894C190.63 367.212 194.59 363.583 195.607 359.788C199.951 343.576 202.62 327.386 205.211 311.672L205.213 311.66C206.403 304.445 207.575 297.331 208.887 290.353C211.065 278.763 214.271 262.026 217.06 247.783C218.779 241.579 220.075 235.32 220.675 229.124L220.688 229.053L220.688 229.051C220.827 228.269 220.965 227.501 221.103 226.743C221.182 226.38 221.271 225.986 221.368 225.566C221.769 223.83 222.275 221.797 222.751 219.91C222.927 219.212 223.102 218.524 223.266 217.881L223.266 217.879C223.533 216.832 223.769 215.903 223.928 215.255L223.947 215.182L223.949 215.172Z" fill="#B7B6FF" stroke="#B7B6FF" stroke-linecap="round"/>
<path d="M527.193 168.669L527.178 168.678L527.164 168.688L526.979 168.814C521.947 172.249 517.708 177.311 514.549 182.083C511.281 187.021 508.562 192.557 506.846 197.822C505.15 203.028 504.267 208.495 505.277 212.909C506.33 217.512 509.502 220.994 515.623 221.32C526.175 221.882 541.823 212.244 545.771 198.689C546.1 197.559 546.602 196.164 547.262 194.334L547.262 194.333C547.823 192.775 548.494 190.914 549.255 188.663C550.72 184.333 552.325 179.045 552.809 174.466C553.257 170.224 552.975 164.385 547.758 162.513C542.505 160.63 535.032 163.747 527.381 168.551L527.193 168.669ZM525.91 185.328C528.097 182.022 530.042 180.059 531.197 179.22C535.931 176.275 537.736 175.965 538.179 175.938C538.186 175.95 538.195 175.964 538.203 175.979C538.25 176.063 538.311 176.205 538.363 176.435C538.468 176.896 538.537 177.708 538.389 179.104C538.077 182.06 536.95 185.985 535.551 190.122C535.073 191.536 534.508 193.12 533.953 194.673L533.946 194.693C533.103 197.054 532.282 199.354 531.853 200.828C530.975 203.842 526.56 207.598 522.361 207.375C520.837 207.294 519.922 206.573 519.527 204.843C519.087 202.923 519.393 199.92 520.61 196.182C521.809 192.504 523.728 188.623 525.91 185.328Z" fill="#B7B6FF" stroke="#B7B6FF" stroke-linecap="round"/>
<path d="M505.203 330.379L505.277 330.366L505.355 330.332L506.167 329.97C513.402 326.752 520.796 322.509 527.668 316.518C534.546 310.522 540.871 302.8 545.984 292.658C552.811 279.119 557.227 264.8 560.639 251.135C562.353 244.271 563.84 237.459 565.243 230.914C565.452 229.939 565.659 228.971 565.864 228.009C567.047 222.475 568.181 217.17 569.381 212.075C572.203 200.097 575.416 187.967 578.667 175.696L578.671 175.68C579.198 173.691 579.726 171.697 580.254 169.7C584.021 155.441 587.748 141.039 590.77 126.859C591.176 124.953 591.784 121.879 591.16 119.446C590.802 118.052 590.029 116.777 588.607 116.042C587.218 115.324 585.557 115.299 583.963 115.58C577.568 116.707 571.033 119.069 565.158 121.192L565.136 121.2L564.85 121.303C558.694 123.528 553.219 125.485 547.997 126.406C544.489 127.025 540.905 130.636 539.905 134.367C538.906 138.098 540.814 140.741 544.322 140.122C550.817 138.977 557.417 136.592 563.328 134.456L563.35 134.448L563.537 134.381C568.833 132.467 573.589 130.759 578.093 129.739C578.081 129.797 578.069 129.856 578.056 129.916C575.126 143.668 571.492 157.721 567.73 171.966C567.208 173.941 566.683 175.921 566.158 177.905L566.154 177.92L566.153 177.923C562.906 190.177 559.626 202.561 556.745 214.786C555.502 220.065 554.327 225.561 553.147 231.084L553.146 231.087C552.942 232.042 552.738 232.997 552.533 233.953C551.134 240.483 549.697 247.06 548.057 253.627C544.762 266.824 540.751 279.538 534.959 291.025C531.553 297.781 527.476 302.951 522.833 307.083C518.208 311.2 512.988 314.318 507.245 316.946C497.674 318.507 491.536 317.335 487.46 314.71C483.249 311.997 480.829 307.469 479.475 301.498C478.105 295.454 477.882 288.198 477.873 280.248C477.871 278.806 477.877 277.337 477.883 275.851L477.883 275.842C477.908 269.34 477.935 262.507 477.354 256.253C477.049 252.973 473.907 251.807 470.26 253.803C466.656 255.775 464.061 260.027 464.364 263.289C464.891 268.954 464.869 275.095 464.845 281.571L464.845 281.573C464.839 283.113 464.834 284.672 464.835 286.246C464.844 294.244 465.048 302.577 466.685 309.8C468.339 317.097 471.506 323.514 477.631 327.459C483.773 331.415 492.479 332.623 504.423 330.517L505.203 330.379Z" fill="#B7B6FF" stroke="#B7B6FF" stroke-linecap="round"/>
<path d="M621.151 159.202C622.622 160.464 623.49 161.696 623.85 162.639C623.213 163.075 622.351 163.568 621.191 164.092C619.118 165.03 616.588 165.846 613.625 166.603C611.009 167.271 608.343 167.824 605.569 168.399C605.206 168.474 604.841 168.549 604.475 168.626C604.135 168.696 603.792 168.768 603.447 168.84C603.813 168.078 604.229 167.276 604.693 166.431C606.11 163.851 607.886 160.99 609.829 158.681C611.497 156.698 612.675 155.835 613.426 155.47C613.438 155.469 613.449 155.468 613.461 155.467C613.502 155.463 613.551 155.458 613.601 155.453C613.629 155.451 613.658 155.448 613.686 155.445C613.766 155.437 613.842 155.43 613.903 155.426C613.961 155.422 613.982 155.422 613.982 155.421C613.982 155.421 613.982 155.421 613.981 155.421C614.207 155.445 614.388 155.506 614.64 155.611C614.699 155.635 614.761 155.662 614.828 155.69C615.05 155.786 615.326 155.904 615.691 156.033C617.517 156.68 619.523 157.805 621.151 159.202ZM633.14 168.871C638.495 163.502 639.013 158.203 638.201 154.868C637.419 151.655 635.287 149.067 633.065 147.161C630.775 145.196 627.967 143.6 625.197 142.619C623.812 142.128 622.318 141.749 620.792 141.592C619.397 141.449 617.373 141.421 615.045 142.193C608.67 144.308 603.571 149.124 600.167 153.17C596.711 157.278 594.077 161.67 592.369 164.78C587.513 173.622 584.026 184.031 590.095 191.061C595.392 197.197 605.042 198.461 614.648 197.419C624.327 196.368 635.026 192.878 643.823 188.16C647.78 186.038 650.51 181.708 649.92 178.489C649.331 175.27 645.645 174.38 641.689 176.502C635.336 179.909 626.967 182.705 619.315 183.536C613.152 184.205 608.117 183.538 604.859 181.529C606.893 181.098 609.037 180.624 611.163 180.081C614.584 179.208 618.325 178.069 621.957 176.426C625.58 174.788 629.602 172.419 633.14 168.871Z" fill="#B7B6FF" stroke="#B7B6FF" stroke-linecap="round"/>
<path d="M319.127 225.108C319.494 224.346 319.909 223.544 320.373 222.699C321.79 220.119 323.567 217.258 325.51 214.948C327.198 212.941 328.17 212.106 328.872 211.749C328.903 211.75 328.935 211.751 328.966 211.752C329.065 211.755 329.15 211.759 329.185 211.763C329.709 211.816 330.458 211.978 331.371 212.301C333.197 212.948 335.203 214.073 336.831 215.469C338.303 216.732 339.17 217.963 339.53 218.907C338.893 219.342 338.031 219.835 336.871 220.36C334.798 221.298 332.268 222.114 329.305 222.871C326.689 223.539 324.024 224.091 321.249 224.666C320.886 224.741 320.521 224.817 320.155 224.893C319.815 224.964 319.472 225.035 319.127 225.108ZM348.82 225.139C354.175 219.769 354.693 214.471 353.882 211.136C353.1 207.923 350.967 205.334 348.746 203.429C346.455 201.464 343.648 199.867 340.878 198.886C339.493 198.396 337.998 198.016 336.472 197.86C335.078 197.716 333.053 197.689 330.726 198.461C324.35 200.576 319.251 205.392 315.847 209.437C312.391 213.546 309.757 217.938 308.049 221.048C303.193 229.889 299.706 240.298 305.775 247.329C311.072 253.465 320.722 254.729 330.328 253.686C340.007 252.636 350.706 249.145 359.504 244.427C363.46 242.305 366.19 237.976 365.6 234.756C365.011 231.537 361.326 230.648 357.369 232.77C351.017 236.176 342.648 238.973 334.995 239.804C328.832 240.473 323.797 239.805 320.539 237.796C322.573 237.366 324.717 236.892 326.843 236.349C330.264 235.475 334.005 234.337 337.637 232.694C341.26 231.055 345.282 228.687 348.82 225.139Z" fill="#B7B6FF" stroke="#B7B6FF" stroke-linecap="round"/>
<path d="M676.566 169.376L676.54 169.368L676.512 169.365C674.605 169.124 673.482 168.441 672.856 167.532C672.229 166.621 672.083 165.457 672.194 164.203C672.306 162.945 672.676 161.612 673.068 160.378C673.175 160.042 673.285 159.707 673.392 159.383C673.668 158.547 673.923 157.774 674.045 157.186C674.652 154.241 676.289 151.754 678.735 149.41C681.36 146.894 684.974 144.524 689.015 142.593C693.026 140.676 696.932 139.446 699.773 138.945C703.642 138.263 707.602 134.633 708.619 130.839C709.636 127.044 707.324 124.521 703.455 125.203C698.955 125.996 693.4 127.793 687.829 130.454C682.289 133.102 676.198 136.862 670.996 141.848C665.615 147.005 661.3 153.392 659.831 160.512C659.569 161.781 659.187 163.005 658.8 164.243C658.681 164.623 658.562 165.004 658.446 165.388C657.956 167.009 657.53 168.651 657.486 170.327C657.396 173.693 658.842 177.09 664.018 180.907L664.52 181.71L664.56 181.773L664.631 181.805L665.574 182.227C671.348 184.808 679.389 183.838 686.89 181.289C694.404 178.735 702.461 174.236 708.777 168.449C712.232 165.283 713.398 160.933 711.381 158.732C709.364 156.531 704.929 157.313 701.474 160.479C698.208 163.471 693.22 166.439 687.984 168.218C683.284 169.815 679.246 170.168 676.566 169.376Z" fill="#B7B6FF" stroke="#B7B6FF" stroke-linecap="round"/>
<path d="M232.865 182.984C232.195 181.816 230.171 180.105 226.781 179.815L226.531 180.304L226.781 179.815C225.854 179.735 225.075 179.671 224.233 179.784C223.374 179.9 222.472 180.198 221.281 180.801C220.184 181.357 219.043 182.027 218.029 182.704C217.025 183.376 216.11 184.078 215.49 184.704C213.345 186.864 212.063 189.062 211.422 190.256C210.672 191.653 210.102 193.007 209.686 194.148C209.267 195.299 208.911 196.487 208.672 197.591C208.553 198.141 208.436 198.793 208.375 199.473C208.327 200.009 208.247 201.204 208.584 202.425C208.753 203.038 209.155 204.147 210.214 205.044C210.651 205.413 211.208 205.748 211.89 205.989C212.118 206.107 212.345 206.205 212.563 206.285C213.703 206.703 214.836 206.734 215.528 206.715C216.27 206.694 216.957 206.597 217.484 206.504C221.371 205.818 224.979 203.462 227.596 200.8C229.954 198.402 231.373 195.934 232.195 194.115C233.632 190.931 234.741 186.259 232.865 182.984Z" fill="#B7B6FF" stroke="#B7B6FF" stroke-linecap="round"/>
<path d="M422.136 152.267C423.103 148.656 420.903 146.255 417.222 146.904C413.54 147.553 409.771 151.006 408.804 154.617C406.612 162.797 403.53 171.038 400.286 179.711L400.284 179.717C399.975 180.543 399.664 181.373 399.353 182.207C398.534 182.76 397.724 183.301 396.92 183.838L396.257 184.282L396.254 184.283C394.693 185.326 393.129 186.371 391.621 187.403C388.171 189.764 384.689 192.277 381.322 195.226C374.265 201.408 368.55 208.771 363.261 219.702C361.488 223.366 362.781 226.484 366.15 226.666C369.518 226.848 373.686 224.025 375.459 220.361C379.732 211.53 383.664 206.855 387.85 203.188C389.525 201.72 391.359 200.312 393.488 198.798C393.137 199.893 392.796 200.989 392.467 202.086C386.942 220.487 382.035 238.768 377.453 256.953C376.713 257.372 375.949 257.802 375.163 258.243L375.132 258.261C368.735 261.856 360.946 266.234 354.333 271.682C350.899 274.511 349.445 278.698 351.087 281.033C352.728 283.369 356.843 282.968 360.277 280.139C364.203 276.905 368.767 274.143 373.92 271.202C370.375 285.708 366.981 300.188 363.599 314.622L363.598 314.623L363.598 314.625C362.064 321.173 360.531 327.71 358.988 334.237C358.795 335.055 358.577 335.927 358.349 336.842L358.345 336.854C357.576 339.935 356.69 343.485 356.273 346.854C355.844 350.334 358.561 352.216 362.343 351.056C366.125 349.896 369.54 346.134 369.97 342.653C370.279 340.145 370.886 337.706 371.61 334.802L371.61 334.801C371.871 333.755 372.146 332.651 372.426 331.466C373.983 324.881 375.523 318.308 377.063 311.74C380.878 295.46 384.685 279.218 388.711 262.926C398.025 257.829 408.762 251.905 417.849 244.045C426.502 236.56 434.197 228.844 441.656 221.194C455.42 207.08 465.383 191.599 472.823 176.811C475.418 171.652 476.985 164.784 476.627 159.129C476.278 153.615 473.868 147.146 465.691 147.052C459.133 146.978 453.255 147.599 444.837 151.764C434.461 156.897 425.329 163.019 416.546 169.634C418.618 163.891 420.585 158.052 422.136 152.267ZM405.674 200.174C406.915 196.042 408.355 191.858 409.902 187.59C412.296 185.885 414.836 184.011 417.529 181.913C427.054 174.495 436.042 168.226 446.228 163.186C451.118 160.767 454.334 160.276 459.75 160.337C461.109 160.353 462.616 161.468 462.863 165.367C463.101 169.134 461.938 173.537 460.758 175.881C453.977 189.36 445.26 202.731 433.686 214.6C426.315 222.159 419.24 229.233 411.441 235.979C405.895 240.776 399.467 244.694 392.277 248.727C396.407 232.569 400.803 216.398 405.674 200.174Z" fill="#B7B6FF" stroke="#B7B6FF" stroke-linecap="round"/>
<path d="M315.19 150.034L315.643 150.053L315.19 150.034C314.959 150.519 314.661 151.159 314.313 151.902L314.309 151.91L314.764 151.926L314.309 151.91L314 152.572C307.677 166.088 301.873 179.4 296.598 192.89C286.419 193.931 274.822 198.187 264.097 204.65C252.713 211.51 241.771 221.196 234.613 232.773C227.326 244.557 223.413 257.258 221.57 267.943C220.067 276.654 220.818 286.14 226.297 291.907C230.878 296.729 238.334 296.3 245.513 293.399C252.43 290.604 259.345 285.476 264.547 280.03C267.527 276.911 270.192 273.663 272.597 270.348C272.402 271.121 272.207 271.894 272.013 272.667C271.911 273.07 271.786 273.546 271.647 274.076L271.645 274.084C271.181 275.842 270.565 278.184 270.18 280.335C269.687 283.086 269.305 286.778 270.618 289.584C271.855 292.228 275.776 292.31 279.375 289.767C282.975 287.224 284.891 283.019 283.654 280.374C283.499 280.045 283.375 279.038 283.772 276.821C284.05 275.266 284.451 273.741 284.885 272.09L284.886 272.088C285.055 271.444 285.229 270.782 285.402 270.095C291.194 247.06 297.284 224.696 305.823 201.564C313.429 185.128 320.859 168.425 327.151 151.925C327.575 150.812 327.904 149.943 328.113 149.366C328.2 149.125 328.34 148.736 328.446 148.374C328.477 148.269 328.528 148.091 328.577 147.878C328.577 147.878 328.577 147.877 328.577 147.877L328.579 147.869L328.579 147.869C328.61 147.736 328.734 147.195 328.745 146.564C328.75 146.301 328.758 145.431 328.333 144.578C327.859 143.628 326.345 141.957 322.927 142.872C320.296 143.576 318.434 145.395 318.036 145.788C317.401 146.413 316.981 146.961 316.813 147.186L317.133 147.32L316.813 147.186C316.444 147.679 316.201 148.086 316.126 148.21L316.543 148.291L316.126 148.21C316.018 148.393 315.932 148.547 315.88 148.644C315.773 148.84 315.681 149.022 315.617 149.15C315.485 149.415 315.336 149.725 315.19 150.034ZM267.121 215.177C275.171 210.327 283.76 207.147 291.157 206.214C289.581 209.595 287.996 212.976 286.409 216.355C284.055 221.366 281.896 226.626 279.796 231.758L279.637 232.148C277.561 237.22 275.525 242.196 273.275 247.105C268.632 257.239 263.449 266.241 256.398 273.621C253.21 276.958 249.105 279.899 245.544 281.338C242.249 282.669 239.766 282.644 238.121 280.912C234.832 277.451 234.006 271.131 235.177 264.346C236.829 254.767 240.216 244.3 245.79 235.285C250.555 227.578 258.24 220.53 267.121 215.177Z" fill="#B7B6FF" stroke="#B7B6FF" stroke-linecap="round"/>
<path d="M765.596 70.4904C765.517 70.514 765.438 70.5372 765.362 70.56L765.361 70.5601L755.236 65.5734C754.271 68.3187 753.308 71.0605 752.342 73.7994C749.392 74.4368 746.894 75.0309 744.753 75.5404L744.752 75.5404M765.596 70.4904C765.538 70.6573 765.479 70.8242 765.42 70.9912C766.424 70.6933 767.636 70.3356 768.912 70.0095C772.432 69.11 776.592 68.3972 782.038 68.4852C785.212 68.5364 786.542 71.3321 785.009 74.7294C783.476 78.1268 779.66 80.8393 776.485 80.788C772.17 80.7183 769.156 81.2704 766.745 81.8864C765.735 82.1447 764.844 82.4086 763.852 82.703C763.56 82.7894 763.259 82.8786 762.944 82.9709C762.184 83.1938 761.352 83.4314 760.472 83.6471M765.596 70.4904C766.304 68.479 767.01 66.47 767.715 64.4639L767.719 64.4517L768.699 61.6622C773.717 47.387 778.712 33.2579 784.145 19.2101C785.561 15.5466 783.846 12.7359 780.313 12.9322C776.78 13.1284 772.767 16.2573 771.351 19.9208C765.81 34.2473 760.736 48.6058 755.723 62.8662L755.723 62.8662L754.756 65.6179C753.842 68.2202 752.929 70.8191 752.014 73.4153C749.247 74.0181 746.886 74.5798 744.851 75.0639M765.596 70.4904C766.578 70.1992 767.758 69.8529 768.998 69.5358C772.563 68.625 776.769 67.9058 782.259 67.9945C785.687 68.0499 787.123 71.0685 785.468 74.7369C783.812 78.4052 779.691 81.3341 776.264 81.2787C771.993 81.2097 769.026 81.7553 766.659 82.3601C765.661 82.615 764.782 82.8756 763.788 83.1703L763.785 83.1712C763.495 83.2574 763.194 83.3464 762.879 83.4388C762.238 83.6268 761.54 83.8268 760.803 84.0159M760.472 83.6471C757.964 90.6609 755.403 97.692 752.742 104.723C744.717 125.928 738.491 143.538 730.416 166.376C729.28 169.589 728.107 172.907 726.888 176.352C719.894 196.109 718.415 209.788 718.609 218.395C718.706 222.706 719.223 225.765 719.69 227.694C719.924 228.659 720.145 229.342 720.295 229.758C720.37 229.966 720.474 230.209 720.506 230.286M760.472 83.6471L760.95 83.6058C760.901 83.7425 760.852 83.8792 760.803 84.0159M760.472 83.6471L760.379 84.1223C760.522 84.0873 760.663 84.0518 760.803 84.0159M720.506 230.286L720.535 230.353C721.745 233.14 723.168 233.753 723.96 233.877C724.728 233.998 725.701 233.788 727.105 233.049C730.322 231.354 733.56 228.056 734.03 227.55C740.107 221.002 741.309 218.308 741.787 216.699C742.099 215.646 742.224 214.642 742.431 212.845C742.627 211.141 742.885 208.932 743.626 206.166C744.522 202.822 748.013 199.623 751.422 199.022C754.832 198.421 756.869 200.645 755.973 203.989C755.499 205.757 755.318 207.198 755.126 208.863M720.506 230.286L720.991 229.953L720.992 229.954C720.958 229.875 720.858 229.64 720.786 229.441C720.639 229.034 720.421 228.361 720.19 227.407C719.729 225.5 719.215 222.465 719.118 218.18C718.926 209.626 720.394 196.006 727.366 176.309C728.586 172.863 729.759 169.546 730.895 166.332C738.97 143.494 745.194 125.89 753.216 104.693C755.827 97.7938 758.341 90.8959 760.803 84.0159M720.506 230.286L720.992 229.955L721.02 230.019C722.205 232.749 723.57 233.286 724.236 233.391C724.876 233.492 725.719 233.329 727.035 232.636C728.56 231.833 730.114 230.635 731.36 229.556C732.604 228.48 733.506 227.553 733.72 227.323C739.754 220.821 740.864 218.237 741.298 216.772C741.595 215.771 741.716 214.812 741.925 213.004C742.121 211.298 742.382 209.058 743.134 206.253C744.101 202.642 747.87 199.188 751.551 198.539C755.233 197.89 757.433 200.291 756.465 203.902C756.002 205.63 755.824 207.04 755.633 208.704M755.126 208.863L755.096 209.129M755.126 208.863L755.633 208.704L755.633 208.704M755.126 208.863L755.633 208.704M755.096 209.129C754.92 210.668 754.693 212.653 754.032 214.883C752.483 220.103 748.959 225.535 741.806 233.242C740.986 234.126 735.526 239.877 728.852 243.393C725.309 245.259 721.039 246.695 717.042 246.065C713.085 245.442 710.228 242.924 708.406 238.759M755.096 209.129L755.602 208.97L755.633 208.704M755.096 209.129L755.602 208.97L755.601 208.981C755.426 210.516 755.195 212.536 754.52 214.811C752.929 220.175 749.312 225.716 742.116 233.469C741.281 234.369 735.733 240.217 728.921 243.806C725.294 245.716 720.893 247.201 716.766 246.551C712.683 245.908 709.769 243.315 707.923 239.095L707.924 239.097L708.406 238.759M708.406 238.759L708.387 238.716C708.36 238.657 708.326 238.581 708.286 238.487C708.207 238.3 708.105 238.044 707.987 237.718C707.751 237.065 707.453 236.129 707.155 234.895C706.557 232.426 705.958 228.767 705.846 223.796C705.621 213.839 707.355 198.698 714.881 177.435C716.095 174.006 717.264 170.7 718.397 167.494L718.405 167.472M708.406 238.759L707.922 239.093L707.904 239.055L707.904 239.054C707.876 238.992 707.841 238.914 707.801 238.818C707.72 238.627 707.616 238.367 707.496 238.035C707.257 237.373 706.956 236.427 706.655 235.182C706.052 232.692 705.449 229.009 705.337 224.011C705.111 214.001 706.855 198.801 714.403 177.478C715.617 174.047 716.786 170.74 717.92 167.532L717.926 167.515L718.405 167.472M718.405 167.472L718.407 167.468L718.407 167.467C726.477 144.642 732.762 126.865 740.852 105.489C743.223 99.2214 745.516 92.9504 747.771 86.6686C747.601 86.7066 747.433 86.7444 747.267 86.782M718.405 167.472L717.926 167.515L717.928 167.512L717.928 167.511L717.928 167.511L717.928 167.511L717.929 167.508C725.998 144.684 732.285 126.902 740.377 105.519C742.738 99.2804 745.022 93.0371 747.267 86.782M747.267 86.782C747.326 86.6172 747.385 86.4523 747.444 86.2875C745.617 86.6997 743.969 87.0914 742.442 87.4545L742.441 87.4547M747.267 86.782C745.473 87.1872 743.852 87.5724 742.345 87.9306L742.344 87.9308M742.441 87.4547C741.43 87.6949 740.472 87.9227 739.549 88.1356C734.827 89.2251 730.828 89.9757 726.291 89.5474C723.232 89.2586 722.171 86.28 723.923 82.8946C725.675 79.5091 729.575 76.9988 732.634 77.2876C735.363 77.5453 737.743 77.171 742.059 76.1751C742.89 75.9835 743.783 75.771 744.749 75.5411L744.75 75.541L744.752 75.5405L744.752 75.5404M742.441 87.4547L742.427 87.5211L742.344 87.9308M742.441 87.4547L742.338 87.9322L742.339 87.932M744.752 75.5404L744.76 75.5017L744.849 75.0644L744.846 75.0649L744.846 75.065C743.879 75.2949 742.988 75.5071 742.16 75.6981C737.859 76.6904 735.544 77.0495 732.887 76.7987C729.584 76.4869 725.372 79.1974 723.481 82.8529C721.59 86.5083 722.735 89.7245 726.038 90.0363C730.647 90.4715 734.711 89.7059 739.449 88.6126C740.373 88.3995 741.331 88.1717 742.339 87.932M744.752 75.5404L744.851 75.0638L744.851 75.0639M744.851 75.0639L744.85 75.0639L744.851 75.0639ZM742.344 87.9308L742.339 87.932M742.344 87.9308L742.339 87.932" fill="#B7B6FF" stroke="#B7B6FF" stroke-linecap="round"/>
</svg>
