<svg width="16" height="16" viewBox="0 0 16 16" fill="none" xmlns="http://www.w3.org/2000/svg">
<rect width="16" height="16" rx="2" fill="#3300FF"/>
<path fill-rule="evenodd" clip-rule="evenodd" d="M10.1581 4.53304C7.3827 4.74326 6.0592 5.36677 5.36751 6.20155C5.08289 6.54505 4.86655 6.96767 4.70904 7.50133C5.00622 7.82061 5.28711 8.1291 5.53281 8.39893C5.76236 8.65103 5.96118 8.86938 6.11384 9.03125C6.5871 9.53309 6.90166 9.81234 7.22219 10.0009C7.74478 10.3083 8.43289 10.4689 10.1581 10.5142V4.53304ZM12.5225 10.5279V3.26691C12.5225 2.51125 11.9171 1.98095 11.2747 2.00052C7.60846 2.11226 5.07381 2.78053 3.58044 4.58285C2.87817 5.4304 2.47312 6.45383 2.24927 7.60564C2.24542 7.62365 2.24196 7.64173 2.23889 7.65986C2.00301 8.90937 1.97678 10.308 2.01363 11.7959C2.03054 12.4784 2.57336 13.0173 3.22606 12.9996C3.87876 12.9819 4.39417 12.4144 4.37727 11.7319C4.36823 11.3673 4.36426 11.0232 4.36573 10.6984C4.38703 10.7211 4.40851 10.7439 4.4302 10.7669C4.94089 11.3085 5.44404 11.7914 6.06275 12.1554C7.31287 12.8908 8.80976 13 11.3403 13H12.8178C13.4707 13 14 12.4466 14 11.7639C14 11.0813 13.4707 10.5279 12.8178 10.5279H12.5225Z" fill="black"/>
</svg>
