<svg width="32" height="40" viewBox="0 0 32 40" fill="none" xmlns="http://www.w3.org/2000/svg">
<path d="M24 8H16V16H24V8Z" fill="#181E30"/>
<path d="M24 16H16V24H24V16Z" fill="#181E30"/>
<path d="M32 16H24V24H32V16Z" fill="#181E30"/>
<path d="M24 24H16V32H24V24Z" fill="#181E30"/>
<path d="M16 32H8V40H16V32Z" fill="#181E30"/>
<path d="M16 24H8V32H16V24Z" fill="#181E30"/>
<path d="M16 8H8V16H16V8Z" fill="#181E30"/>
<path d="M16 0H8V8H16V0Z" fill="#181E30"/>
<path d="M8 0H0V8H8V0Z" fill="#181E30"/>
<path d="M8 32H0V40H8V32Z" fill="#181E30"/>
</svg>
