<svg width="149" height="36" viewBox="0 0 149 36" fill="none" xmlns="http://www.w3.org/2000/svg">
<path fill-rule="evenodd" clip-rule="evenodd" d="M11.1597 2.00245C10.7382 1.10714 11.3646 0 12.4413 0H30.7451C31.5016 0 32.1147 0.609202 32.1147 1.36069C32.1147 2.11218 31.5016 2.72138 30.7451 2.72138H14.5615C16.1834 5.86677 17.8634 8.29919 20.063 10.5012C22.6948 13.1359 26.1317 15.5025 31.2562 18.3419C31.8761 18.6854 32.0679 19.3548 31.9481 19.8818C31.825 20.4232 31.3284 20.9773 30.5691 20.9773L12.3696 20.9773C11.6132 20.9773 11 20.3681 11 19.6166C11 18.8652 11.6132 18.2559 12.3696 18.2559L25.7106 18.2559C22.6108 16.3232 20.1655 14.4672 18.1187 12.4181C15.2086 9.50488 13.1656 6.26352 11.1597 2.00245ZM53.0925 0.0453342C53.8489 0.0453342 54.4621 0.654537 54.4621 1.40603V6.5875C56.7797 6.78238 58.6661 7.47279 60.1853 8.48239C61.9837 9.67757 63.1899 11.268 63.9964 12.8398C65.0489 14.8908 65.452 16.9713 65.6068 18.2786H67.9756C68.732 18.2786 69.3452 18.8878 69.3452 19.6393C69.3452 20.3908 68.732 21 67.9756 21H64.3796C63.7332 21 62.9795 20.5072 62.9641 19.6207C62.9587 19.3075 62.8665 16.6297 61.556 14.0758C60.91 12.8169 59.9865 11.6244 58.6623 10.7444C57.6045 10.0414 56.2406 9.50384 54.4621 9.3207V19.6393C54.4621 20.3908 53.8489 21 53.0925 21C52.3361 21 51.7229 20.3908 51.7229 19.6393V1.40603C51.7229 0.654537 52.3361 0.0453342 53.0925 0.0453342ZM104.133 0.294794C104.89 0.294794 105.503 0.903997 105.503 1.65549V18.2786H119.016C119.773 18.2786 120.386 18.8878 120.386 19.6393C120.386 20.3908 119.773 21 119.016 21H104.179C103.397 21 102.764 20.3705 102.764 19.5939V1.65549C102.764 0.903997 103.377 0.294794 104.133 0.294794ZM69.8017 5.76024C70.5581 5.76024 71.1713 6.36944 71.1713 7.12093C71.1713 9.59472 71.2161 11.5231 71.429 13.0536C71.6416 14.5819 72.0045 15.5657 72.5315 16.2425C73.036 16.8903 73.8024 17.3983 75.1273 17.7477C76.2286 18.0382 77.6585 18.2035 79.5317 18.2582V7.12093C79.5317 6.36944 80.1449 5.76024 80.9013 5.76024C81.6578 5.76024 82.271 6.36944 82.271 7.12093V18.2786H84.6847C85.4412 18.2786 86.0544 18.8878 86.0544 19.6393C86.0544 20.3908 85.4412 21 84.6847 21H80.8999L80.8985 21C78.2607 20.9945 76.1253 20.8266 74.4244 20.378C72.6924 19.9212 71.3344 19.1525 70.365 17.9077C69.4182 16.6919 68.9578 15.1674 68.7156 13.4261C68.4737 11.687 68.4321 9.58457 68.4321 7.12093C68.4321 6.36944 69.0453 5.76024 69.8017 5.76024ZM84.6847 5.76024L88.8167 5.76024H87.287C85.8717 5.76024 88.817 5.76024 88.8173 5.76024L88.8205 5.76024L88.8283 5.76026C88.8347 5.76028 88.8437 5.76031 88.8552 5.76037C88.8782 5.7605 88.9111 5.76075 88.9533 5.76123C89.0376 5.7622 89.1591 5.76411 89.3125 5.76788C89.6191 5.77541 90.0543 5.79039 90.5754 5.82026C91.6131 5.87972 93.0128 5.99932 94.4258 6.24223C95.8161 6.48125 97.324 6.85643 98.519 7.47275C99.6758 8.06941 100.937 9.11666 100.937 10.8175V13.3801C100.937 14.1316 100.324 14.7408 99.5678 14.7408C98.8114 14.7408 98.1982 14.1316 98.1982 13.3801V10.8175C98.1982 10.67 98.1158 10.3311 97.2569 9.88807C96.4361 9.46474 95.2562 9.14682 93.9587 8.92377C92.684 8.70462 91.3959 8.59318 90.4177 8.53712C90.3383 8.53258 90.2612 8.5284 90.1863 8.52457V19.6393C90.1863 20.3908 89.5731 21 88.8167 21C88.0603 21 87.4471 20.3908 87.4471 19.6393V8.48162L84.6847 8.48162C83.9283 8.48162 83.3151 7.87242 83.3151 7.12093C83.3151 6.36944 83.9283 5.76024 84.6847 5.76024ZM45.7884 8.54149C42.4795 8.73686 40.3309 9.27394 38.9207 10.095C37.6126 10.8566 36.8383 11.9236 36.4012 13.5165C36.6483 13.7732 36.8784 14.0187 37.0988 14.2539C38.004 15.22 38.7465 16.0126 39.8392 16.6961C41.09 17.4786 42.8323 18.1009 45.7884 18.2464V8.54149ZM48.5276 18.2786V7.16759C48.5276 6.32936 47.8206 5.74045 47.0699 5.76219C42.8571 5.88419 39.7436 6.46164 37.5357 7.74708C35.2196 9.09554 34.0642 11.1206 33.554 13.6679C33.2055 15.4075 33.149 17.4222 33.2077 19.6745C33.2273 20.4258 33.8561 21.019 34.6123 20.9995C35.3684 20.9801 35.9655 20.3553 35.946 19.6041C35.9214 18.6604 35.9192 17.796 35.9474 17.0033C36.6592 17.715 37.4487 18.4166 38.3797 18.999C40.3765 20.2482 43.0072 21 47.158 21H49.4402C50.1967 21 50.8099 20.3908 50.8099 19.6393C50.8099 18.8878 50.1967 18.2786 49.4402 18.2786H48.5276ZM121.299 7.17136C121.299 6.39482 121.932 5.76531 122.714 5.76531H137.518C138.001 5.76531 138.691 6.05345 138.887 6.82086C139.011 7.30718 139.423 9.59426 137.229 11.7052C135.255 13.6046 131.395 15.117 124.038 15.2829V18.2786H137.552C138.308 18.2786 138.921 18.8878 138.921 19.6393C138.921 20.3908 138.308 21 137.552 21H122.714C121.932 21 121.299 20.3705 121.299 19.594V7.17136ZM124.038 12.5608C131.103 12.3934 134.094 10.9326 135.323 9.7502C135.791 9.3002 136.033 8.85853 136.153 8.48669H124.038V12.5608Z" fill="#101828"/>
<path d="M3.9 33.12C2.82667 33.12 2.01333 32.93 1.46 32.55C0.906667 32.17 0.63 31.6133 0.63 30.88V30.79H1.88V30.88C1.88 31.6267 2.57333 32 3.96 32C4.56 32 5.01667 31.93 5.33 31.79C5.65 31.65 5.81 31.4467 5.81 31.18V31.11C5.81 30.8767 5.71667 30.7033 5.53 30.59C5.34333 30.4767 5.00333 30.3867 4.51 30.32L2.93 30.1C1.48333 29.9 0.76 29.3133 0.76 28.34V28.24C0.76 27.64 1.02333 27.17 1.55 26.83C2.08333 26.49 2.83333 26.32 3.8 26.32C4.82 26.32 5.59667 26.5033 6.13 26.87C6.67 27.2367 6.94 27.77 6.94 28.47V28.56H5.69V28.47C5.69 27.7833 5.06 27.44 3.8 27.44C3.22667 27.44 2.78667 27.5067 2.48 27.64C2.18 27.7733 2.03 27.9633 2.03 28.21V28.29C2.03 28.49 2.11667 28.6433 2.29 28.75C2.47 28.85 2.78 28.93 3.22 28.99L4.81 29.21C5.59 29.3167 6.16333 29.52 6.53 29.82C6.89667 30.1133 7.08 30.5233 7.08 31.05V31.15C7.08 31.77 6.80333 32.2533 6.25 32.6C5.69667 32.9467 4.91333 33.12 3.9 33.12ZM11.1048 33.12C10.4982 33.12 9.97151 33.02 9.52484 32.82C9.08484 32.6133 8.74484 32.3233 8.50484 31.95C8.26484 31.57 8.14484 31.1267 8.14484 30.62V30.42C8.14484 29.9067 8.26484 29.46 8.50484 29.08C8.74484 28.7 9.08818 28.41 9.53484 28.21C9.98151 28.0033 10.5048 27.9 11.1048 27.9C12.0115 27.9 12.7182 28.12 13.2248 28.56C13.7382 29 13.9948 29.6067 13.9948 30.38V30.91H9.40484C9.45151 31.2633 9.62151 31.5367 9.91484 31.73C10.2148 31.9233 10.6115 32.02 11.1048 32.02C11.5648 32.02 11.9382 31.9533 12.2248 31.82C12.5115 31.6867 12.6715 31.5067 12.7048 31.28H13.9948C13.9282 31.8667 13.6415 32.32 13.1348 32.64C12.6348 32.96 11.9582 33.12 11.1048 33.12ZM12.6948 29.91C12.6148 29.6233 12.4348 29.4 12.1548 29.24C11.8748 29.08 11.5215 29 11.0948 29C10.6548 29 10.2915 29.08 10.0048 29.24C9.71818 29.4 9.53151 29.6233 9.44484 29.91H12.6948ZM20.7938 33C20.4738 33 20.2005 32.9467 19.9738 32.84C19.7538 32.7267 19.5905 32.5633 19.4838 32.35C19.2238 32.6167 18.9172 32.8133 18.5638 32.94C18.2105 33.06 17.7938 33.12 17.3138 33.12C16.5872 33.12 16.0238 32.99 15.6238 32.73C15.2238 32.4633 15.0238 32.09 15.0238 31.61C15.0238 31.21 15.1738 30.8867 15.4738 30.64C15.7805 30.3867 16.2138 30.23 16.7738 30.17L19.3338 29.89C19.2538 29.3233 18.7438 29.04 17.8038 29.04C17.3172 29.04 16.9372 29.11 16.6638 29.25C16.3905 29.39 16.2538 29.5833 16.2538 29.83V29.86H15.0538V29.83C15.0538 29.45 15.1672 29.1133 15.3938 28.82C15.6205 28.5267 15.9405 28.3 16.3538 28.14C16.7738 27.98 17.2605 27.9 17.8138 27.9C18.6738 27.9 19.3438 28.0933 19.8238 28.48C20.3038 28.86 20.5438 29.3933 20.5438 30.08V31.46C20.5438 31.6133 20.5905 31.7333 20.6838 31.82C20.7772 31.9 20.9105 31.94 21.0838 31.94H21.5238V33H20.7938ZM16.2238 31.61C16.2238 31.91 16.5772 32.06 17.2838 32.06C17.7905 32.06 18.2205 31.9833 18.5738 31.83C18.9338 31.6767 19.1905 31.46 19.3438 31.18V30.87L17.0338 31.12C16.4938 31.18 16.2238 31.3433 16.2238 31.61ZM25.072 33.12C24.152 33.12 23.432 32.9767 22.912 32.69C22.3987 32.3967 22.142 31.99 22.142 31.47V31.4H23.342V31.47C23.342 31.67 23.482 31.8167 23.762 31.91C24.042 31.9967 24.4887 32.04 25.102 32.04C26.1354 32.04 26.652 31.8767 26.652 31.55V31.49C26.652 31.37 26.5787 31.28 26.432 31.22C26.2854 31.16 26.0154 31.11 25.622 31.07L24.402 30.95C23.6754 30.8833 23.1454 30.7367 22.812 30.51C22.4787 30.2767 22.312 29.95 22.312 29.53V29.43C22.312 28.95 22.552 28.5767 23.032 28.31C23.5187 28.0367 24.1954 27.9 25.062 27.9C25.9554 27.9 26.6454 28.0433 27.132 28.33C27.6254 28.6167 27.872 29.0233 27.872 29.55V29.62H26.672V29.55C26.672 29.35 26.5387 29.2067 26.272 29.12C26.012 29.0267 25.5954 28.98 25.022 28.98C24.5487 28.98 24.1854 29.0167 23.932 29.09C23.6787 29.1633 23.552 29.2667 23.552 29.4V29.46C23.552 29.5867 23.6187 29.6833 23.752 29.75C23.8854 29.81 24.1054 29.8567 24.412 29.89L25.652 30.01C26.4387 30.0833 27.0087 30.2367 27.362 30.47C27.7154 30.7033 27.892 31.0367 27.892 31.47V31.57C27.892 32.0567 27.642 32.4367 27.142 32.71C26.642 32.9833 25.952 33.12 25.072 33.12ZM31.9068 33.12C31.2935 33.12 30.7601 33.02 30.3068 32.82C29.8535 32.6133 29.5035 32.32 29.2568 31.94C29.0168 31.56 28.8968 31.1133 28.8968 30.6V30.45C28.8968 29.93 29.0168 29.48 29.2568 29.1C29.4968 28.7133 29.8435 28.4167 30.2968 28.21C30.7501 28.0033 31.2868 27.9 31.9068 27.9C32.5201 27.9 33.0501 28.0033 33.4968 28.21C33.9435 28.4167 34.2868 28.7133 34.5268 29.1C34.7668 29.48 34.8868 29.93 34.8868 30.45V30.6C34.8868 31.1133 34.7668 31.56 34.5268 31.94C34.2868 32.32 33.9435 32.6133 33.4968 32.82C33.0501 33.02 32.5201 33.12 31.9068 33.12ZM30.1368 30.6C30.1368 31.0467 30.2901 31.3967 30.5968 31.65C30.9101 31.8967 31.3435 32.02 31.8968 32.02C32.4435 32.02 32.8701 31.8967 33.1768 31.65C33.4901 31.3967 33.6468 31.0467 33.6468 30.6V30.45C33.6468 29.99 33.4935 29.6333 33.1868 29.38C32.8801 29.1267 32.4501 29 31.8968 29C31.3301 29 30.8935 29.1267 30.5868 29.38C30.2868 29.6267 30.1368 29.9833 30.1368 30.45V30.6ZM40.5025 30.5C40.5025 30.0133 40.3658 29.6433 40.0925 29.39C39.8258 29.13 39.4358 29 38.9225 29C38.5692 29 38.2458 29.0833 37.9525 29.25C37.6658 29.41 37.4492 29.63 37.3025 29.91V33H36.1025V28.02H37.2225L37.2625 28.55C37.7358 28.1167 38.3292 27.9 39.0425 27.9C39.9158 27.9 40.5758 28.12 41.0225 28.56C41.4758 29 41.7025 29.6467 41.7025 30.5V33H40.5025V30.5ZM50.3358 33.12C49.2824 33.1133 48.4791 32.93 47.9258 32.57C47.3724 32.21 47.0958 31.6867 47.0958 31V30.93H48.3358V31C48.3358 31.3067 48.5091 31.5433 48.8558 31.71C49.2091 31.8767 49.7058 31.96 50.3458 31.96C51.6791 31.96 52.3458 31.6533 52.3458 31.04V30.92C52.3458 30.3533 51.6824 30.07 50.3558 30.07H49.2158V28.97L51.4358 27.56H47.2158V26.44H53.4258V27.56L51.0958 29.02C51.9091 29.08 52.5291 29.27 52.9558 29.59C53.3824 29.91 53.5958 30.3433 53.5958 30.89V31.01C53.5958 31.6967 53.3191 32.22 52.7658 32.58C52.2124 32.94 51.4024 33.12 50.3358 33.12ZM55.6055 33.12C55.3855 33.12 55.2055 33.0533 55.0655 32.92C54.9322 32.7867 54.8655 32.6133 54.8655 32.4C54.8655 32.1867 54.9322 32.0133 55.0655 31.88C55.2055 31.7467 55.3855 31.68 55.6055 31.68C55.8255 31.68 56.0022 31.7467 56.1355 31.88C56.2755 32.0133 56.3455 32.1867 56.3455 32.4C56.3455 32.6133 56.2755 32.7867 56.1355 32.92C56.0022 33.0533 55.8255 33.12 55.6055 33.12ZM58.0254 32L61.0254 30.29C61.5454 29.99 61.9221 29.7567 62.1554 29.59C62.3954 29.4167 62.5554 29.26 62.6354 29.12C62.7221 28.9733 62.7654 28.7967 62.7654 28.59V28.49C62.7654 28.1633 62.6187 27.9133 62.3254 27.74C62.0321 27.5667 61.6087 27.48 61.0554 27.48C60.4887 27.48 60.0554 27.5767 59.7554 27.77C59.4621 27.9567 59.3154 28.2367 59.3154 28.61V28.81H58.0654V28.6C58.0654 27.8667 58.3187 27.3033 58.8254 26.91C59.3387 26.5167 60.0721 26.32 61.0254 26.32C61.9587 26.32 62.6887 26.51 63.2154 26.89C63.7487 27.2633 64.0154 27.7833 64.0154 28.45V28.55C64.0154 28.9033 63.9487 29.21 63.8154 29.47C63.6821 29.73 63.4487 29.99 63.1154 30.25C62.7887 30.51 62.3087 30.82 61.6754 31.18L60.4354 31.88H64.2154V33H58.0254V32ZM68.9442 33.12C68.2176 33.12 67.5909 33.02 67.0642 32.82C66.5376 32.6133 66.1342 32.32 65.8542 31.94C65.5809 31.5533 65.4442 31.1 65.4442 30.58V29.03C65.4442 28.1767 65.7476 27.5133 66.3542 27.04C66.9609 26.56 67.8109 26.32 68.9042 26.32C69.8842 26.32 70.6542 26.5067 71.2142 26.88C71.7809 27.2533 72.0642 27.77 72.0642 28.43V28.5H70.8242V28.43C70.8242 28.1233 70.6542 27.89 70.3142 27.73C69.9809 27.5633 69.5109 27.48 68.9042 27.48C68.1709 27.48 67.6176 27.61 67.2442 27.87C66.8709 28.1233 66.6842 28.5033 66.6842 29.01V29.43C67.2376 29.0367 68.0242 28.84 69.0442 28.84C70.0376 28.84 70.8076 29.0133 71.3542 29.36C71.9009 29.7067 72.1742 30.2 72.1742 30.84V30.96C72.1742 31.64 71.8876 32.17 71.3142 32.55C70.7409 32.93 69.9509 33.12 68.9442 33.12ZM66.6842 30.66C66.7042 31.0733 66.9076 31.3933 67.2942 31.62C67.6876 31.8467 68.2442 31.96 68.9642 31.96C69.5842 31.96 70.0642 31.88 70.4042 31.72C70.7509 31.56 70.9242 31.3233 70.9242 31.01V30.89C70.9242 30.29 70.2909 29.99 69.0242 29.99C68.4709 29.99 67.9909 30.05 67.5842 30.17C67.1842 30.2833 66.8842 30.4467 66.6842 30.66ZM81.6895 28.14C82.2695 28.14 82.7495 28.62 82.7495 29.2C82.7495 29.79 82.2695 30.27 81.6895 30.27C81.0995 30.27 80.6195 29.79 80.6195 29.2C80.6195 28.62 81.0995 28.14 81.6895 28.14ZM91.5434 26.44H95.6434C96.3967 26.44 96.99 26.6233 97.4234 26.99C97.8634 27.35 98.0834 27.8433 98.0834 28.47V28.58C98.0834 29.2067 97.8634 29.7033 97.4234 30.07C96.99 30.43 96.3967 30.61 95.6434 30.61H92.7934V33H91.5434V26.44ZM95.6134 29.49C96 29.49 96.2967 29.4133 96.5034 29.26C96.71 29.1 96.8134 28.8733 96.8134 28.58V28.47C96.8134 28.1767 96.71 27.9533 96.5034 27.8C96.2967 27.64 96 27.56 95.6134 27.56H92.7934V29.49H95.6134ZM101.819 33.12C101.206 33.12 100.672 33.02 100.219 32.82C99.7656 32.6133 99.4156 32.32 99.1689 31.94C98.9289 31.56 98.8089 31.1133 98.8089 30.6V30.45C98.8089 29.93 98.9289 29.48 99.1689 29.1C99.4089 28.7133 99.7556 28.4167 100.209 28.21C100.662 28.0033 101.199 27.9 101.819 27.9C102.432 27.9 102.962 28.0033 103.409 28.21C103.856 28.4167 104.199 28.7133 104.439 29.1C104.679 29.48 104.799 29.93 104.799 30.45V30.6C104.799 31.1133 104.679 31.56 104.439 31.94C104.199 32.32 103.856 32.6133 103.409 32.82C102.962 33.02 102.432 33.12 101.819 33.12ZM100.049 30.6C100.049 31.0467 100.202 31.3967 100.509 31.65C100.822 31.8967 101.256 32.02 101.809 32.02C102.356 32.02 102.782 31.8967 103.089 31.65C103.402 31.3967 103.559 31.0467 103.559 30.6V30.45C103.559 29.99 103.406 29.6333 103.099 29.38C102.792 29.1267 102.362 29 101.809 29C101.242 29 100.806 29.1267 100.499 29.38C100.199 29.6267 100.049 29.9833 100.049 30.45V30.6ZM107.635 33C107.128 33 106.738 32.88 106.465 32.64C106.191 32.4 106.055 32.0567 106.055 31.61V26.04H107.255V31.4C107.255 31.5933 107.301 31.7333 107.395 31.82C107.488 31.9 107.641 31.94 107.855 31.94H108.285V33H107.635ZM114.788 33C114.468 33 114.195 32.9467 113.968 32.84C113.748 32.7267 113.585 32.5633 113.478 32.35C113.218 32.6167 112.911 32.8133 112.558 32.94C112.205 33.06 111.788 33.12 111.308 33.12C110.581 33.12 110.018 32.99 109.618 32.73C109.218 32.4633 109.018 32.09 109.018 31.61C109.018 31.21 109.168 30.8867 109.468 30.64C109.775 30.3867 110.208 30.23 110.768 30.17L113.328 29.89C113.248 29.3233 112.738 29.04 111.798 29.04C111.311 29.04 110.931 29.11 110.658 29.25C110.385 29.39 110.248 29.5833 110.248 29.83V29.86H109.048V29.83C109.048 29.45 109.161 29.1133 109.388 28.82C109.615 28.5267 109.935 28.3 110.348 28.14C110.768 27.98 111.255 27.9 111.808 27.9C112.668 27.9 113.338 28.0933 113.818 28.48C114.298 28.86 114.538 29.3933 114.538 30.08V31.46C114.538 31.6133 114.585 31.7333 114.678 31.82C114.771 31.9 114.905 31.94 115.078 31.94H115.518V33H114.788ZM110.218 31.61C110.218 31.91 110.571 32.06 111.278 32.06C111.785 32.06 112.215 31.9833 112.568 31.83C112.928 31.6767 113.185 31.46 113.338 31.18V30.87L111.028 31.12C110.488 31.18 110.218 31.3433 110.218 31.61ZM116.406 28.02H117.526L117.556 28.51C117.983 28.1833 118.54 28.02 119.226 28.02H120.176V29.08H119.066C118.38 29.08 117.893 29.2733 117.606 29.66V33H116.406V28.02ZM121.133 28.02H122.333V33H121.133V28.02ZM121.733 27.34C121.499 27.34 121.309 27.27 121.163 27.13C121.016 26.99 120.943 26.81 120.943 26.59C120.943 26.3767 121.016 26.2 121.163 26.06C121.309 25.92 121.499 25.85 121.733 25.85C121.966 25.85 122.156 25.92 122.303 26.06C122.449 26.1933 122.523 26.37 122.523 26.59C122.523 26.81 122.449 26.99 122.303 27.13C122.156 27.27 121.966 27.34 121.733 27.34ZM129.397 33C129.077 33 128.804 32.9467 128.577 32.84C128.357 32.7267 128.194 32.5633 128.087 32.35C127.827 32.6167 127.521 32.8133 127.167 32.94C126.814 33.06 126.397 33.12 125.917 33.12C125.191 33.12 124.627 32.99 124.227 32.73C123.827 32.4633 123.627 32.09 123.627 31.61C123.627 31.21 123.777 30.8867 124.077 30.64C124.384 30.3867 124.817 30.23 125.377 30.17L127.937 29.89C127.857 29.3233 127.347 29.04 126.407 29.04C125.921 29.04 125.541 29.11 125.267 29.25C124.994 29.39 124.857 29.5833 124.857 29.83V29.86H123.657V29.83C123.657 29.45 123.771 29.1133 123.997 28.82C124.224 28.5267 124.544 28.3 124.957 28.14C125.377 27.98 125.864 27.9 126.417 27.9C127.277 27.9 127.947 28.0933 128.427 28.48C128.907 28.86 129.147 29.3933 129.147 30.08V31.46C129.147 31.6133 129.194 31.7333 129.287 31.82C129.381 31.9 129.514 31.94 129.687 31.94H130.127V33H129.397ZM124.827 31.61C124.827 31.91 125.181 32.06 125.887 32.06C126.394 32.06 126.824 31.9833 127.177 31.83C127.537 31.6767 127.794 31.46 127.947 31.18V30.87L125.637 31.12C125.097 31.18 124.827 31.3433 124.827 31.61ZM131.016 28.02H132.136L132.166 28.51C132.592 28.1833 133.149 28.02 133.836 28.02H134.786V29.08H133.676C132.989 29.08 132.502 29.2733 132.216 29.66V33H131.016V28.02ZM138.137 33.12C137.53 33.12 137.003 33.02 136.557 32.82C136.11 32.6133 135.763 32.32 135.517 31.94C135.277 31.56 135.157 31.1167 135.157 30.61V30.45C135.157 29.93 135.277 29.48 135.517 29.1C135.757 28.7133 136.1 28.4167 136.547 28.21C137 28.0033 137.53 27.9 138.137 27.9C138.69 27.9 139.187 27.9933 139.627 28.18C140.067 28.3667 140.41 28.6267 140.657 28.96C140.903 29.2933 141.027 29.67 141.027 30.09V30.12H139.787V30.09C139.787 29.77 139.633 29.51 139.327 29.31C139.02 29.1033 138.623 29 138.137 29C137.583 29 137.153 29.1267 136.847 29.38C136.547 29.6333 136.397 29.9933 136.397 30.46V30.6C136.397 31.0533 136.547 31.4033 136.847 31.65C137.153 31.8967 137.583 32.02 138.137 32.02C138.623 32.02 139.02 31.92 139.327 31.72C139.633 31.52 139.787 31.26 139.787 30.94V30.91H141.027V30.94C141.027 31.3667 140.907 31.7467 140.667 32.08C140.427 32.4067 140.087 32.6633 139.647 32.85C139.213 33.03 138.71 33.12 138.137 33.12ZM142.216 26.04H143.416V28.52C143.889 28.1067 144.469 27.9 145.156 27.9C146.022 27.9 146.682 28.12 147.136 28.56C147.589 29 147.816 29.6467 147.816 30.5V33H146.616V30.5C146.616 30.0133 146.479 29.6433 146.206 29.39C145.939 29.13 145.549 29 145.036 29C144.682 29 144.359 29.0833 144.066 29.25C143.779 29.4167 143.562 29.64 143.416 29.92V33H142.216V26.04Z" fill="#101828"/>
</svg>
