<svg width="1481" height="356" viewBox="0 0 1481 356" fill="none" xmlns="http://www.w3.org/2000/svg">
<path fill-rule="evenodd" clip-rule="evenodd" d="M75.663 21.0734C71.2736 11.6514 77.7969 0 89.0095 0H279.627C287.504 0 293.89 6.41113 293.89 14.3197C293.89 22.2282 287.504 28.6393 279.627 28.6393H111.09C127.98 61.7408 145.476 87.3391 168.383 110.512C195.79 138.239 231.582 163.145 284.949 193.027C291.405 196.642 293.403 203.687 292.155 209.232C290.873 214.93 285.701 220.761 277.793 220.761L88.2632 220.761C80.3858 220.761 74 214.35 74 206.442C74 198.533 80.3858 192.122 88.2631 192.122L227.197 192.122C194.916 171.782 169.45 152.25 148.135 130.686C117.829 100.028 96.5531 65.9161 75.663 21.0734ZM512.354 0.477089C520.232 0.477089 526.617 6.88822 526.617 14.7967V69.3256C550.752 71.3765 570.398 78.6422 586.218 89.267C604.947 101.845 617.509 118.582 625.908 135.123C636.868 156.708 641.067 178.602 642.678 192.361H667.347C675.225 192.361 681.61 198.772 681.61 206.68C681.61 214.589 675.225 221 667.347 221H629.899C623.167 221 615.317 215.814 615.157 206.484C615.101 203.188 614.141 175.008 600.494 148.131C593.766 134.882 584.148 122.333 570.358 113.072C559.342 105.673 545.138 100.017 526.617 98.0893C526.617 98.0893 526.617 198.772 526.617 206.68C526.617 214.589 520.232 221 512.354 221C504.477 221 498.091 214.589 498.091 206.68V14.7967C498.091 6.88822 504.477 0.477089 512.354 0.477089ZM1043.89 3.10236C1051.77 3.10236 1058.16 9.51349 1058.16 17.422V192.361H1198.89C1206.76 192.361 1213.15 198.772 1213.15 206.68C1213.15 214.589 1206.76 221 1198.89 221H1044.37C1036.23 221 1029.63 214.375 1029.63 206.203V17.422C1029.63 9.51349 1036.02 3.10236 1043.89 3.10236ZM686.365 60.6197C694.242 60.6196 700.628 67.0308 700.628 74.9393C700.628 100.973 701.095 121.267 703.312 137.373C705.526 153.457 709.305 163.811 714.793 170.933C720.047 177.75 728.028 183.096 741.826 186.774C753.295 189.831 768.186 191.57 787.694 192.146V74.9393C787.694 67.0308 794.08 60.6197 801.957 60.6197C809.834 60.6197 816.22 67.0308 816.22 74.9393V192.361H841.358C849.235 192.361 855.621 198.772 855.621 206.68C855.621 214.589 849.235 221 841.358 221H801.942L801.927 221C774.458 220.942 752.219 219.175 734.506 214.454C716.468 209.647 702.326 201.557 692.231 188.458C682.371 175.663 677.576 159.619 675.054 141.294C672.534 122.992 672.102 100.866 672.102 74.9394C672.102 67.0308 678.487 60.6197 686.365 60.6197ZM841.358 60.6197L884.388 60.6197H883C877.5 60.6197 884.391 60.6197 884.394 60.6197L884.428 60.6197L884.509 60.6199C884.576 60.6201 884.669 60.6204 884.789 60.6211C885.028 60.6224 885.371 60.625 885.81 60.6301C886.688 60.6403 887.954 60.6604 889.552 60.7C892.745 60.7793 897.276 60.937 902.704 61.2513C913.51 61.8771 928.086 63.1357 942.801 65.6921C957.28 68.2074 972.983 72.1558 985.428 78.6418C997.476 84.9209 1010.61 95.942 1010.61 113.841V140.81C1010.61 148.718 1004.23 155.129 996.351 155.129C988.473 155.129 982.087 148.718 982.087 140.81V113.841C982.087 112.289 981.23 108.722 972.285 104.06C963.737 99.6051 951.449 96.2594 937.937 93.912C924.662 91.6057 911.247 90.433 901.061 89.8431C900.234 89.7952 899.431 89.7513 898.651 89.7109V206.68C898.651 214.589 892.266 221 884.388 221C876.511 221 870.125 214.589 870.125 206.68V89.259L841.358 89.259C833.48 89.259 827.094 82.8479 827.094 74.9393C827.094 67.0308 833.48 60.6197 841.358 60.6197ZM436.288 89.889C401.829 91.9451 379.454 97.5972 364.768 106.238C351.145 114.253 343.082 125.482 338.53 142.245C341.103 144.946 343.499 147.53 345.794 150.006C355.221 160.173 362.954 168.513 374.334 175.707C387.359 183.941 405.503 190.49 436.288 192.021V89.889ZM464.815 192.361V75.4303C464.815 66.6089 457.452 60.4114 449.635 60.6402C405.762 61.9241 373.338 68.0011 350.345 81.5288C326.225 95.7198 314.192 117.031 308.879 143.839C305.25 162.146 304.661 183.348 305.272 207.051C305.476 214.957 312.025 221.2 319.9 220.995C327.774 220.79 333.993 214.215 333.789 206.309C333.533 196.379 333.51 187.282 333.803 178.94C341.217 186.429 349.438 193.813 359.134 199.942C379.929 213.088 407.325 221 450.552 221H474.319C482.196 221 488.582 214.589 488.582 206.68C488.582 198.772 482.196 192.361 474.319 192.361H464.815ZM1222.66 75.47C1222.66 67.2979 1229.26 60.673 1237.4 60.673H1391.56C1396.59 60.673 1403.78 63.7053 1405.82 71.7814C1407.12 76.8993 1411.41 100.968 1388.56 123.183C1368 143.172 1327.8 159.089 1251.19 160.835V192.361H1391.92C1399.79 192.361 1406.18 198.772 1406.18 206.68C1406.18 214.589 1399.79 221 1391.92 221H1237.4C1229.26 221 1222.66 214.375 1222.66 206.203V75.47ZM1251.19 132.188C1324.76 130.426 1355.91 115.053 1368.71 102.609C1373.58 97.8735 1376.1 93.2255 1377.35 89.3124H1251.19V132.188Z" fill="#4A374A"/>
<path d="M32.9031 356C22.1031 356 13.9193 354.092 8.35155 350.276C2.78385 346.461 0 340.871 0 333.508V332.604H12.5776V333.508C12.5776 341.005 19.554 344.754 33.5068 344.754C39.5441 344.754 44.1391 344.051 47.2919 342.645C50.5118 341.239 52.1217 339.198 52.1217 336.52V335.817C52.1217 333.474 51.1826 331.734 49.3044 330.596C47.4261 329.458 44.005 328.554 39.041 327.884L23.1429 325.675C8.58634 323.667 1.30808 317.776 1.30808 308.003V306.999C1.30808 300.974 3.95776 296.254 9.25714 292.84C14.6236 289.426 22.1702 287.719 31.8969 287.719C42.1603 287.719 49.9752 289.56 55.3416 293.242C60.7752 296.924 63.4919 302.279 63.4919 309.308V310.212H50.9143V309.308C50.9143 302.413 44.5752 298.966 31.8969 298.966C26.128 298.966 21.7006 299.635 18.6149 300.974C15.5963 302.313 14.087 304.221 14.087 306.697V307.501C14.087 309.509 14.959 311.049 16.7031 312.12C18.5143 313.124 21.6335 313.927 26.0609 314.53L42.0596 316.739C49.9081 317.81 55.677 319.851 59.3665 322.864C63.0559 325.809 64.9006 329.926 64.9006 335.215V336.219C64.9006 342.444 62.1168 347.298 56.5491 350.779C50.9814 354.26 43.0994 356 32.9031 356Z" fill="#826981"/>
<path d="M105.399 356C99.2947 356 93.9953 354.996 89.5009 352.988C85.0736 350.912 81.6525 348 79.2376 344.252C76.8227 340.436 75.6152 335.984 75.6152 330.897V328.889C75.6152 323.734 76.8227 319.249 79.2376 315.433C81.6525 311.618 85.1071 308.706 89.6015 306.697C94.096 304.622 99.3618 303.585 105.399 303.585C114.522 303.585 121.633 305.794 126.731 310.212C131.896 314.63 134.479 320.722 134.479 328.487V333.809H88.2935C88.763 337.357 90.4736 340.101 93.4252 342.043C96.4438 343.984 100.435 344.955 105.399 344.955C110.028 344.955 113.784 344.285 116.669 342.946C119.553 341.608 121.163 339.8 121.498 337.524H134.479C133.808 343.415 130.923 347.967 125.825 351.18C120.794 354.393 113.985 356 105.399 356ZM121.398 323.768C120.593 320.889 118.782 318.646 115.964 317.04C113.147 315.433 109.592 314.63 105.298 314.63C100.871 314.63 97.2152 315.433 94.3307 317.04C91.4463 318.646 89.568 320.889 88.696 323.768H121.398Z" fill="#826981"/>
<path d="M202.891 354.795C199.671 354.795 196.921 354.26 194.64 353.188C192.426 352.05 190.783 350.41 189.709 348.268C187.093 350.946 184.007 352.921 180.452 354.193C176.897 355.398 172.704 356 167.875 356C160.563 356 154.894 354.695 150.87 352.084C146.845 349.406 144.832 345.657 144.832 340.838C144.832 336.821 146.342 333.575 149.36 331.098C152.446 328.554 156.806 326.981 162.441 326.378L188.2 323.567C187.395 317.877 182.263 315.032 172.805 315.032C167.908 315.032 164.085 315.735 161.334 317.14C158.584 318.546 157.209 320.487 157.209 322.964V323.265H145.134V322.964C145.134 319.149 146.275 315.768 148.555 312.823C150.836 309.877 154.056 307.601 158.215 305.994C162.441 304.388 167.338 303.585 172.906 303.585C181.559 303.585 188.301 305.526 193.13 309.409C197.96 313.224 200.375 318.58 200.375 325.475V339.331C200.375 340.871 200.845 342.076 201.784 342.946C202.723 343.75 204.065 344.151 205.809 344.151H210.236V354.795H202.891ZM156.907 340.838C156.907 343.85 160.462 345.356 167.573 345.356C172.671 345.356 176.998 344.586 180.553 343.047C184.175 341.507 186.758 339.331 188.301 336.52V333.407L165.057 335.917C159.624 336.52 156.907 338.16 156.907 340.838Z" fill="#826981"/>
<path d="M245.938 356C236.681 356 229.437 354.561 224.204 351.682C219.039 348.737 216.456 344.653 216.456 339.432V338.729H228.531V339.432C228.531 341.44 229.94 342.913 232.757 343.85C235.575 344.72 240.069 345.155 246.24 345.155C256.638 345.155 261.837 343.515 261.837 340.235V339.633C261.837 338.428 261.099 337.524 259.623 336.922C258.147 336.319 255.43 335.817 251.473 335.415L239.197 334.21C231.885 333.541 226.552 332.068 223.198 329.792C219.844 327.449 218.167 324.169 218.167 319.952V318.948C218.167 314.128 220.582 310.379 225.412 307.702C230.309 304.957 237.117 303.585 245.838 303.585C254.827 303.585 261.77 305.024 266.666 307.902C271.63 310.781 274.112 314.864 274.112 320.153V320.856H262.038V320.153C262.038 318.144 260.696 316.705 258.013 315.835C255.397 314.898 251.204 314.429 245.435 314.429C240.673 314.429 237.017 314.797 234.468 315.534C231.919 316.27 230.644 317.308 230.644 318.646V319.249C230.644 320.521 231.315 321.492 232.657 322.161C233.998 322.763 236.212 323.232 239.297 323.567L251.775 324.772C259.69 325.508 265.425 327.048 268.981 329.391C272.536 331.734 274.314 335.081 274.314 339.432V340.436C274.314 345.323 271.798 349.138 266.767 351.883C261.736 354.628 254.793 356 245.938 356Z" fill="#826981"/>
<path d="M314.711 356C308.539 356 303.173 354.996 298.611 352.988C294.05 350.912 290.528 347.967 288.046 344.151C285.631 340.336 284.424 335.851 284.424 330.696V329.19C284.424 323.968 285.631 319.45 288.046 315.634C290.461 311.751 293.949 308.773 298.511 306.697C303.072 304.622 308.472 303.585 314.711 303.585C320.882 303.585 326.215 304.622 330.709 306.697C335.204 308.773 338.659 311.751 341.073 315.634C343.488 319.45 344.696 323.968 344.696 329.19V330.696C344.696 335.851 343.488 340.336 341.073 344.151C338.659 347.967 335.204 350.912 330.709 352.988C326.215 354.996 320.882 356 314.711 356ZM296.901 330.696C296.901 335.181 298.444 338.696 301.529 341.239C304.682 343.716 309.042 344.955 314.61 344.955C320.111 344.955 324.404 343.716 327.49 341.239C330.642 338.696 332.219 335.181 332.219 330.696V329.19C332.219 324.571 330.676 320.989 327.59 318.446C324.504 315.902 320.178 314.63 314.61 314.63C308.908 314.63 304.514 315.902 301.429 318.446C298.41 320.923 296.901 324.504 296.901 329.19V330.696Z" fill="#826981"/>
<path d="M401.202 329.692C401.202 324.805 399.826 321.09 397.076 318.546C394.393 315.935 390.469 314.63 385.303 314.63C381.748 314.63 378.495 315.467 375.543 317.14C372.659 318.747 370.479 320.956 369.003 323.768V354.795H356.928V304.79H368.198L368.6 310.111C373.363 305.76 379.333 303.585 386.511 303.585C395.299 303.585 401.939 305.794 406.434 310.212C410.995 314.63 413.276 321.123 413.276 329.692V354.795H401.202V329.692Z" fill="#826981"/>
<path d="M500.145 356C489.546 355.933 481.463 354.092 475.896 350.477C470.328 346.862 467.544 341.608 467.544 334.713V334.01H480.021V334.713C480.021 337.792 481.765 340.168 485.253 341.842C488.809 343.515 493.806 344.352 500.246 344.352C513.662 344.352 520.37 341.273 520.37 335.114V333.909C520.37 328.219 513.695 325.374 500.346 325.374H488.876V314.329L511.214 300.171H468.751V288.924H531.237V300.171L507.792 314.831C515.976 315.433 522.215 317.341 526.508 320.554C530.801 323.768 532.948 328.119 532.948 333.608V334.813C532.948 341.708 530.164 346.963 524.596 350.578C519.028 354.193 510.878 356 500.145 356Z" fill="#826981"/>
<path d="M553.17 356C550.956 356 549.145 355.331 547.737 353.992C546.395 352.653 545.724 350.912 545.724 348.77C545.724 346.628 546.395 344.888 547.737 343.549C549.145 342.21 550.956 341.541 553.17 341.541C555.384 341.541 557.162 342.21 558.503 343.549C559.912 344.888 560.616 346.628 560.616 348.77C560.616 350.912 559.912 352.653 558.503 353.992C557.162 355.331 555.384 356 553.17 356Z" fill="#826981"/>
<path d="M577.519 344.754L607.705 327.583C612.938 324.571 616.728 322.228 619.075 320.554C621.49 318.814 623.1 317.241 623.905 315.835C624.777 314.362 625.213 312.588 625.213 310.513V309.509C625.213 306.229 623.738 303.718 620.786 301.978C617.834 300.238 613.575 299.367 608.007 299.367C602.305 299.367 597.945 300.338 594.926 302.279C591.975 304.154 590.499 306.965 590.499 310.714V312.722H577.921V310.613C577.921 303.25 580.47 297.593 585.569 293.644C590.734 289.694 598.113 287.719 607.705 287.719C617.097 287.719 624.442 289.627 629.741 293.443C635.108 297.192 637.791 302.413 637.791 309.107V310.111C637.791 313.659 637.12 316.739 635.779 319.349C634.437 321.96 632.089 324.571 628.735 327.182C625.448 329.792 620.618 332.905 614.246 336.52L601.769 343.549H639.803V354.795H577.519V344.754Z" fill="#826981"/>
<path d="M687.385 356C680.074 356 673.768 354.996 668.469 352.988C663.169 350.912 659.111 347.967 656.293 344.151C653.543 340.269 652.168 335.717 652.168 330.495V314.931C652.168 306.363 655.22 299.702 661.325 294.949C667.429 290.129 675.982 287.719 686.983 287.719C696.844 287.719 704.592 289.594 710.226 293.343C715.928 297.091 718.779 302.279 718.779 308.906V309.609H706.302V308.906C706.302 305.827 704.592 303.484 701.171 301.878C697.816 300.204 693.087 299.367 686.983 299.367C679.604 299.367 674.036 300.673 670.28 303.283C666.523 305.827 664.645 309.643 664.645 314.73V318.948C670.213 314.998 678.128 313.023 688.392 313.023C698.387 313.023 706.134 314.764 711.635 318.245C717.136 321.726 719.886 326.68 719.886 333.106V334.311C719.886 341.139 717.002 346.461 711.233 350.276C705.464 354.092 697.515 356 687.385 356ZM664.645 331.298C664.846 335.449 666.892 338.662 670.783 340.938C674.741 343.214 680.342 344.352 687.587 344.352C693.825 344.352 698.655 343.549 702.076 341.942C705.564 340.336 707.308 337.959 707.308 334.813V333.608C707.308 327.583 700.936 324.571 688.19 324.571C682.623 324.571 677.793 325.173 673.701 326.378C669.676 327.516 666.657 329.156 664.645 331.298Z" fill="#826981"/>
<path d="M815.629 305.994C821.465 305.994 826.295 310.814 826.295 316.638C826.295 322.563 821.465 327.382 815.629 327.382C809.693 327.382 804.863 322.563 804.863 316.638C804.863 310.814 809.693 305.994 815.629 305.994Z" fill="#826981"/>
<path d="M914.781 288.924H956.035C963.615 288.924 969.585 290.765 973.946 294.447C978.373 298.062 980.587 303.016 980.587 309.308V310.413C980.587 316.705 978.373 321.692 973.946 325.374C969.585 328.989 963.615 330.796 956.035 330.796H927.358V354.795H914.781V288.924ZM955.733 319.55C959.624 319.55 962.609 318.78 964.689 317.241C966.768 315.634 967.808 313.358 967.808 310.413V309.308C967.808 306.363 966.768 304.12 964.689 302.58C962.609 300.974 959.624 300.171 955.733 300.171H927.358V319.55H955.733Z" fill="#826981"/>
<path d="M1018.17 356C1012 356 1006.64 354.996 1002.07 352.988C997.513 350.912 993.992 347.967 991.51 344.151C989.095 340.336 987.887 335.851 987.887 330.696V329.19C987.887 323.968 989.095 319.45 991.51 315.634C993.925 311.751 997.413 308.773 1001.97 306.697C1006.54 304.622 1011.94 303.585 1018.17 303.585C1024.35 303.585 1029.68 304.622 1034.17 306.697C1038.67 308.773 1042.12 311.751 1044.54 315.634C1046.95 319.45 1048.16 323.968 1048.16 329.19V330.696C1048.16 335.851 1046.95 340.336 1044.54 344.151C1042.12 347.967 1038.67 350.912 1034.17 352.988C1029.68 354.996 1024.35 356 1018.17 356ZM1000.36 330.696C1000.36 335.181 1001.91 338.696 1004.99 341.239C1008.15 343.716 1012.51 344.955 1018.07 344.955C1023.57 344.955 1027.87 343.716 1030.95 341.239C1034.11 338.696 1035.68 335.181 1035.68 330.696V329.19C1035.68 324.571 1034.14 320.989 1031.05 318.446C1027.97 315.902 1023.64 314.63 1018.07 314.63C1012.37 314.63 1007.98 315.902 1004.89 318.446C1001.87 320.923 1000.36 324.504 1000.36 329.19V330.696Z" fill="#826981"/>
<path d="M1076.69 354.795C1071.59 354.795 1067.67 353.59 1064.92 351.18C1062.17 348.77 1060.79 345.323 1060.79 340.838V284.908H1072.87V338.729C1072.87 340.67 1073.34 342.076 1074.28 342.946C1075.22 343.75 1076.76 344.151 1078.91 344.151H1083.23V354.795H1076.69Z" fill="#826981"/>
<path d="M1148.67 354.795C1145.45 354.795 1142.7 354.26 1140.42 353.188C1138.21 352.05 1136.56 350.41 1135.49 348.268C1132.87 350.946 1129.79 352.921 1126.23 354.193C1122.68 355.398 1118.48 356 1113.65 356C1106.34 356 1100.67 354.695 1096.65 352.084C1092.62 349.406 1090.61 345.657 1090.61 340.838C1090.61 336.821 1092.12 333.575 1095.14 331.098C1098.23 328.554 1102.59 326.981 1108.22 326.378L1133.98 323.567C1133.17 317.877 1128.04 315.032 1118.58 315.032C1113.69 315.032 1109.86 315.735 1107.11 317.14C1104.36 318.546 1102.99 320.487 1102.99 322.964V323.265H1090.91V322.964C1090.91 319.149 1092.05 315.768 1094.33 312.823C1096.62 309.877 1099.84 307.601 1103.99 305.994C1108.22 304.388 1113.12 303.585 1118.69 303.585C1127.34 303.585 1134.08 305.526 1138.91 309.409C1143.74 313.224 1146.15 318.58 1146.15 325.475V339.331C1146.15 340.871 1146.62 342.076 1147.56 342.946C1148.5 343.75 1149.84 344.151 1151.59 344.151H1156.02V354.795H1148.67ZM1102.69 340.838C1102.69 343.85 1106.24 345.356 1113.35 345.356C1118.45 345.356 1122.78 344.586 1126.33 343.047C1129.95 341.507 1132.54 339.331 1134.08 336.52V333.407L1110.84 335.917C1105.4 336.52 1102.69 338.16 1102.69 340.838Z" fill="#826981"/>
<path d="M1164.95 304.79H1176.22L1176.52 309.71C1180.82 306.43 1186.42 304.79 1193.33 304.79H1202.89V315.433H1191.72C1184.81 315.433 1179.91 317.375 1177.03 321.257V354.795H1164.95V304.79Z" fill="#826981"/>
<path d="M1212.51 304.79H1224.59V354.795H1212.51V304.79ZM1218.55 297.961C1216.2 297.961 1214.29 297.259 1212.81 295.853C1211.34 294.447 1210.6 292.64 1210.6 290.431C1210.6 288.288 1211.34 286.514 1212.81 285.109C1214.29 283.703 1216.2 283 1218.55 283C1220.9 283 1222.81 283.703 1224.28 285.109C1225.76 286.448 1226.5 288.221 1226.5 290.431C1226.5 292.64 1225.76 294.447 1224.28 295.853C1222.81 297.259 1220.9 297.961 1218.55 297.961Z" fill="#826981"/>
<path d="M1295.67 354.795C1292.45 354.795 1289.7 354.26 1287.42 353.188C1285.21 352.05 1283.56 350.41 1282.49 348.268C1279.87 350.946 1276.79 352.921 1273.23 354.193C1269.68 355.398 1265.49 356 1260.66 356C1253.34 356 1247.68 354.695 1243.65 352.084C1239.63 349.406 1237.61 345.657 1237.61 340.838C1237.61 336.821 1239.12 333.575 1242.14 331.098C1245.23 328.554 1249.59 326.981 1255.22 326.378L1280.98 323.567C1280.18 317.877 1275.04 315.032 1265.59 315.032C1260.69 315.032 1256.87 315.735 1254.12 317.14C1251.36 318.546 1249.99 320.487 1249.99 322.964V323.265H1237.92V322.964C1237.92 319.149 1239.06 315.768 1241.34 312.823C1243.62 309.877 1246.84 307.601 1251 305.994C1255.22 304.388 1260.12 303.585 1265.69 303.585C1274.34 303.585 1281.08 305.526 1285.91 309.409C1290.74 313.224 1293.16 318.58 1293.16 325.475V339.331C1293.16 340.871 1293.63 342.076 1294.56 342.946C1295.5 343.75 1296.85 344.151 1298.59 344.151H1303.02V354.795H1295.67ZM1249.69 340.838C1249.69 343.85 1253.24 345.356 1260.35 345.356C1265.45 345.356 1269.78 344.586 1273.33 343.047C1276.96 341.507 1279.54 339.331 1281.08 336.52V333.407L1257.84 335.917C1252.4 336.52 1249.69 338.16 1249.69 340.838Z" fill="#826981"/>
<path d="M1311.95 304.79H1323.22L1323.53 309.71C1327.82 306.43 1333.42 304.79 1340.33 304.79H1349.89V315.433H1338.72C1331.81 315.433 1326.91 317.375 1324.03 321.257V354.795H1311.95V304.79Z" fill="#826981"/>
<path d="M1383.61 356C1377.5 356 1372.2 354.996 1367.71 352.988C1363.21 350.912 1359.73 347.967 1357.24 344.151C1354.83 340.336 1353.62 335.884 1353.62 330.796V329.19C1353.62 323.968 1354.83 319.45 1357.24 315.634C1359.66 311.751 1363.11 308.773 1367.61 306.697C1372.17 304.622 1377.5 303.585 1383.61 303.585C1389.17 303.585 1394.17 304.522 1398.6 306.396C1403.03 308.271 1406.48 310.881 1408.96 314.228C1411.45 317.575 1412.69 321.358 1412.69 325.575V325.876H1400.21V325.575C1400.21 322.362 1398.67 319.751 1395.58 317.743C1392.49 315.668 1388.5 314.63 1383.61 314.63C1378.04 314.63 1373.71 315.902 1370.63 318.446C1367.61 320.989 1366.1 324.604 1366.1 329.29V330.696C1366.1 335.248 1367.61 338.762 1370.63 341.239C1373.71 343.716 1378.04 344.955 1383.61 344.955C1388.5 344.955 1392.49 343.95 1395.58 341.942C1398.67 339.934 1400.21 337.323 1400.21 334.11V333.809H1412.69V334.11C1412.69 338.394 1411.48 342.21 1409.06 345.557C1406.65 348.837 1403.23 351.414 1398.8 353.289C1394.44 355.096 1389.38 356 1383.61 356Z" fill="#826981"/>
<path d="M1424.65 284.908H1436.73V309.81C1441.49 305.66 1447.33 303.585 1454.23 303.585C1462.96 303.585 1469.6 305.794 1474.16 310.212C1478.72 314.63 1481 321.123 1481 329.692V354.795H1468.93V329.692C1468.93 324.805 1467.55 321.09 1464.8 318.546C1462.12 315.935 1458.19 314.63 1453.03 314.63C1449.47 314.63 1446.22 315.467 1443.27 317.14C1440.38 318.814 1438.2 321.056 1436.73 323.868V354.795H1424.65V284.908Z" fill="#826981"/>
</svg>
